<?xml version="1.0" standalone="no"?>
<!DOCTYPE svg PUBLIC "-//W3C//DTD SVG 20010904//EN"
 "http://www.w3.org/TR/2001/REC-SVG-20010904/DTD/svg10.dtd">
<svg version="1.0" xmlns="http://www.w3.org/2000/svg"
 width="1092.000000pt" height="1280.000000pt" viewBox="0 0 1092.000000 1280.000000"
 preserveAspectRatio="xMidYMid meet">
<metadata>
Created by potrace 1.15, written by Peter Selinger 2001-2017
</metadata>
<g transform="translate(0.000000,1280.000000) scale(0.100000,-0.100000)" stroke="none">
<path d="M5281 12690 c-1 -56 17 -168 30 -189 15 -24 3 134 -15 189 l-14 45
-1 -45z"/>
<path d="M4930 12667 c-1 -28 131 -230 137 -210 2 6 -15 43 -39 83 -43 72 -97
142 -98 127z"/>
<path d="M5968 12403 c2 -38 7 -81 12 -98 7 -24 8 -17 9 36 1 71 -7 129 -18
129 -4 0 -5 -30 -3 -67z"/>
<path d="M5320 12424 c0 -22 7 -63 15 -90 8 -27 24 -97 36 -157 11 -59 34
-147 50 -195 18 -51 32 -117 35 -161 l5 -74 -40 43 c-22 24 -43 55 -46 69 -3
13 -15 43 -26 65 -10 22 -19 50 -19 63 0 14 -5 21 -12 18 -8 -3 -30 20 -51 53
-31 47 -37 52 -32 27 13 -59 49 -131 105 -210 61 -86 93 -143 104 -188 5 -20
3 -27 -4 -22 -8 5 -9 2 -1 -11 5 -11 13 -36 16 -56 4 -26 10 -36 20 -32 8 3
11 13 7 22 -5 15 -3 15 11 4 9 -8 26 -39 37 -70 12 -32 29 -65 37 -74 9 -10
16 -35 17 -55 0 -21 6 -42 13 -46 19 -12 44 -107 34 -126 -8 -13 -15 -5 -35
38 -14 30 -22 59 -19 64 3 6 1 7 -4 4 -13 -8 -23 24 -23 73 -1 41 -32 136 -50
153 -10 10 -11 3 -6 -30 4 -27 2 -43 -4 -43 -5 0 -10 8 -10 19 0 10 -11 26
-25 35 -14 9 -25 23 -25 31 0 9 -11 33 -25 55 -14 22 -25 49 -25 60 0 11 -7
23 -15 26 -8 3 -26 31 -41 62 -15 32 -35 69 -45 84 -11 14 -19 39 -19 55 0 37
-29 123 -47 142 -8 7 -17 26 -20 42 -3 16 -10 32 -15 35 -22 14 26 -154 58
-204 9 -13 13 -26 10 -29 -2 -3 -17 19 -32 49 -23 45 -92 122 -102 113 -5 -5
57 -125 88 -170 15 -22 30 -55 33 -73 9 -45 57 -143 67 -137 5 3 12 0 16 -6 5
-8 3 -9 -6 -4 -13 8 -10 -12 15 -75 18 -48 69 -223 85 -290 7 -30 19 -67 26
-81 8 -16 11 -42 7 -70 -3 -24 -5 -64 -4 -89 1 -25 3 -62 4 -83 2 -39 -11 -44
-28 -11 -5 11 -22 40 -36 64 -15 25 -32 63 -39 85 -7 22 -23 65 -35 95 -19 46
-23 80 -27 211 -4 108 -10 164 -20 183 -13 25 -14 14 -11 -116 l4 -143 -30 47
c-16 25 -42 81 -56 124 -26 76 -87 198 -106 210 -19 11 4 -52 71 -196 38 -80
77 -175 89 -213 11 -37 25 -75 30 -85 14 -27 25 -126 13 -118 -18 11 0 -35 45
-115 24 -42 46 -92 50 -110 l6 -33 -38 32 c-50 41 -55 35 -10 -12 19 -21 35
-47 35 -59 1 -21 2 -21 14 -4 13 17 14 17 20 0 3 -10 9 -24 12 -30 3 -8 -1
-13 -10 -13 -9 0 -16 -7 -16 -15 0 -8 -6 -15 -12 -15 -8 -1 -5 -7 6 -15 10 -8
23 -12 27 -9 5 3 9 -6 9 -20 0 -14 5 -26 10 -26 6 0 10 -7 10 -16 0 -8 4 -13
9 -9 6 3 8 -7 6 -22 -2 -16 -4 -32 -4 -38 -1 -5 -9 4 -19 22 -9 17 -29 51 -43
75 -15 24 -30 54 -34 67 -6 21 -5 23 11 17 11 -4 0 11 -23 32 -33 31 -43 48
-44 73 -1 19 -2 48 -3 66 -1 17 -5 35 -9 39 -4 4 -7 19 -7 33 0 21 -2 23 -10
11 -5 -8 -10 -13 -11 -10 0 3 -7 37 -15 75 -8 39 -17 82 -20 98 -4 15 -11 27
-16 27 -13 0 -3 -84 17 -141 8 -23 15 -57 15 -77 l0 -35 -27 36 c-16 20 -36
48 -46 62 -10 14 -22 23 -26 21 -4 -3 -21 21 -37 52 -35 69 -76 131 -87 132
-27 1 -117 142 -117 182 0 10 -4 18 -9 18 -5 0 -7 -10 -4 -22 11 -44 -25 3
-71 94 -24 48 -53 100 -65 117 -12 17 -19 36 -16 41 4 6 3 9 -2 8 -16 -5 -72
45 -84 76 -41 105 -80 186 -89 186 -3 0 -14 14 -23 30 -10 17 -22 30 -27 30
-10 0 16 -75 33 -97 21 -28 -14 -12 -50 22 -37 35 -61 46 -47 23 17 -30 115
-156 145 -188 19 -19 56 -71 84 -116 27 -45 69 -109 93 -142 23 -33 42 -65 42
-69 0 -5 9 -15 20 -23 11 -8 20 -22 20 -30 0 -9 12 -32 26 -51 44 -59 47 -76
5 -29 -69 76 -79 89 -120 143 -21 28 -53 66 -71 82 -29 28 -90 109 -90 121 0
10 -81 84 -91 84 -6 0 -7 -10 -3 -22 l6 -23 -23 22 c-13 11 -54 37 -91 57 -36
21 -74 48 -83 62 -25 39 -86 104 -107 115 -18 10 -19 9 -7 -13 6 -13 21 -36
33 -53 l21 -30 -29 19 c-61 39 -142 84 -166 91 -24 7 -24 7 5 -20 42 -37 121
-88 177 -113 37 -16 56 -34 96 -94 27 -40 74 -101 103 -135 98 -111 224 -264
228 -276 2 -7 41 -53 86 -103 90 -99 139 -167 133 -184 -2 -6 -21 6 -42 27
-21 21 -41 38 -46 38 -10 0 -105 129 -132 178 -13 24 -18 27 -18 13 0 -18 -2
-18 -24 3 -14 13 -26 33 -28 44 -2 12 -12 24 -24 27 -19 5 -94 80 -94 94 0 4
-24 31 -53 59 -29 29 -66 70 -82 92 -45 63 -137 155 -170 171 -17 8 -39 30
-50 50 -21 40 -154 179 -162 170 -6 -6 52 -97 91 -141 30 -35 106 -143 106
-151 0 -4 23 -31 51 -61 27 -31 48 -61 45 -68 -2 -7 6 -25 20 -41 13 -16 23
-33 24 -39 0 -15 -100 87 -116 118 -8 15 -21 27 -28 27 -26 0 -101 97 -166
214 -36 64 -75 128 -87 142 -13 14 -23 29 -23 34 0 13 -100 120 -112 120 -6 0
5 -19 24 -42 41 -50 127 -186 153 -242 10 -21 36 -62 57 -90 21 -28 38 -54 38
-58 0 -21 -29 -1 -113 80 -115 111 -218 179 -217 145 1 -5 32 -41 70 -82 39
-40 70 -75 70 -76 0 -2 -10 -1 -22 3 -45 11 68 -102 159 -161 23 -15 50 -39
59 -54 48 -79 71 -105 125 -148 32 -25 59 -51 59 -57 0 -6 16 -30 35 -54 19
-23 35 -47 35 -53 0 -5 10 -17 22 -25 12 -9 18 -16 13 -16 -5 0 -1 -6 8 -12 9
-7 29 -36 44 -64 38 -69 59 -104 121 -197 28 -44 52 -81 52 -82 0 -2 165 -176
217 -229 26 -26 77 -69 113 -95 71 -51 95 -95 81 -147 l-8 -29 -17 34 c-11 20
-21 29 -25 23 -9 -15 -67 31 -92 72 -10 17 -19 25 -19 19 0 -18 -13 -16 -36 5
-10 9 -36 26 -58 37 -21 11 -46 29 -55 41 -9 11 -26 26 -39 33 -14 7 -46 60
-86 144 -59 121 -156 261 -164 237 -2 -5 23 -56 56 -112 61 -106 102 -183 102
-192 0 -11 -103 59 -121 83 -11 13 -21 22 -24 20 -2 -3 -57 47 -122 109 -114
110 -231 210 -309 262 -54 36 -116 99 -109 110 3 5 -4 7 -15 5 -15 -3 -46 20
-113 84 -88 84 -154 134 -207 160 -20 10 -18 5 11 -21 60 -55 160 -186 146
-191 -7 -3 7 -23 37 -51 27 -25 45 -46 40 -46 -5 0 8 -11 27 -25 20 -13 39
-32 43 -41 5 -13 3 -14 -6 -7 -19 15 -66 24 -70 14 -6 -16 -149 50 -237 109
-126 84 -267 154 -247 121 9 -14 240 -158 267 -166 43 -13 95 -43 126 -72 32
-30 99 -65 171 -89 44 -15 142 -71 142 -81 0 -3 -11 -2 -25 1 -14 4 -25 4 -25
0 0 -11 142 -114 158 -114 9 0 62 -53 62 -62 0 -3 16 -23 36 -44 57 -63 61
-83 6 -31 -28 26 -54 47 -57 47 -12 0 -3 -20 21 -50 36 -42 22 -51 -19 -13
-17 17 -47 44 -66 60 -19 15 -56 48 -83 73 -27 25 -53 45 -58 45 -10 0 -27 17
-90 95 -57 69 -69 79 -100 80 -22 0 -16 -8 47 -72 40 -40 79 -90 88 -110 8
-21 13 -38 10 -38 -3 0 10 -20 28 -44 79 -109 97 -136 97 -142 0 -5 -7 1 -15
12 -8 10 -15 14 -15 8 0 -6 7 -17 16 -25 20 -16 47 -69 39 -77 -3 -3 -31 19
-63 50 -31 31 -68 59 -81 63 l-24 7 22 -30 c11 -17 21 -33 21 -36 0 -16 -157
74 -232 133 -49 39 -88 67 -88 63 0 -5 6 -14 13 -21 14 -15 -34 9 -73 37 -13
9 -21 11 -16 5 14 -24 -5 -13 -74 43 -38 30 -101 71 -141 91 -40 20 -101 60
-136 89 -35 30 -71 54 -79 54 -14 0 -14 -3 -4 -16 17 -19 120 -98 151 -115 13
-7 52 -34 86 -60 34 -26 67 -49 75 -52 7 -2 10 -7 7 -11 -3 -3 -37 14 -74 39
-38 24 -85 50 -104 56 -56 18 -169 76 -210 107 -44 34 -79 56 -105 66 -42 15
17 -34 100 -84 45 -28 87 -57 95 -66 13 -16 130 -74 176 -88 35 -11 110 -55
125 -73 11 -15 11 -16 -7 -9 -39 15 -71 24 -155 41 -63 14 -116 34 -206 82
-67 34 -130 63 -140 63 -18 -1 -18 -1 1 -16 26 -20 143 -79 175 -89 14 -4 52
-19 85 -35 33 -15 69 -31 80 -34 14 -5 16 -9 7 -15 -8 -5 12 -10 50 -14 108
-10 210 -38 235 -64 13 -12 28 -23 33 -23 6 0 10 -4 10 -10 0 -5 7 -10 15 -10
20 0 89 -37 108 -58 8 -9 18 -27 21 -39 6 -19 4 -23 -16 -23 -18 0 -20 2 -8
10 18 11 3 12 -25 1 -19 -8 -19 -8 4 -16 13 -4 30 -8 37 -9 7 -1 17 -5 20 -9
4 -4 19 -7 34 -7 14 0 64 -19 110 -41 47 -23 103 -50 125 -59 49 -22 163 -110
144 -111 -8 -1 -18 -1 -22 0 -5 1 -5 -4 -1 -10 9 -14 7 -14 -96 32 -82 37
-226 119 -251 144 -9 8 -23 13 -32 9 -9 -3 -29 1 -44 9 -15 8 -53 26 -83 41
-30 14 -72 36 -92 48 -44 25 -62 18 -27 -11 l24 -19 -100 4 c-55 3 -110 7
-122 9 -13 3 -49 8 -80 11 -75 7 -105 17 -145 48 -29 22 -108 55 -132 56 -5 0
-3 -7 4 -15 11 -13 8 -14 -21 -9 -62 11 -133 36 -203 71 -137 70 -302 113
-201 53 55 -33 46 -38 -29 -15 -27 8 -51 13 -53 11 -3 -2 17 -17 44 -32 26
-15 57 -32 68 -39 21 -12 54 -22 173 -54 63 -17 155 -71 122 -71 -10 0 -10 -3
0 -14 13 -16 20 -14 -135 -40 -49 -8 -91 -10 -109 -5 -32 9 -49 3 -27 -10 22
-14 1 -18 -114 -25 -122 -8 -210 -21 -270 -42 l-40 -14 79 2 c43 0 97 4 120 9
245 45 239 44 344 20 107 -26 258 -78 340 -119 41 -21 49 -28 35 -33 -20 -8
-20 -8 57 -28 141 -39 181 -51 243 -77 l69 -28 -39 -12 c-38 -12 -38 -12 27
-12 67 1 146 -21 187 -51 27 -19 29 -28 6 -33 -10 -2 6 -10 35 -17 28 -7 52
-16 52 -20 0 -4 28 -23 63 -42 65 -38 127 -56 127 -38 0 6 5 7 10 4 6 -4 8
-10 5 -15 -3 -5 4 -15 16 -23 11 -8 16 -18 11 -21 -5 -3 -26 6 -47 19 -20 14
-40 23 -44 20 -5 -2 -17 2 -27 10 -10 8 -30 15 -44 15 -24 0 -96 22 -129 39
-25 13 -81 21 -81 13 0 -4 30 -16 67 -26 36 -9 87 -28 112 -42 127 -68 155
-84 160 -92 3 -5 15 -12 25 -15 10 -4 16 -10 13 -13 -7 -8 -105 24 -112 37 -4
5 -13 9 -20 9 -8 0 -38 11 -67 24 -29 13 -66 27 -83 31 l-30 8 25 7 c20 7 16
8 -20 9 -47 1 -142 28 -220 63 -25 11 -79 31 -120 45 -41 13 -79 28 -83 32 -4
5 13 14 38 21 25 7 48 17 51 21 7 13 -2 11 -44 -7 -68 -30 -133 -22 -287 35
-77 28 -148 51 -159 51 -11 0 -78 27 -148 60 -71 33 -131 60 -134 60 -13 0 -1
-31 14 -36 23 -7 122 -50 198 -85 34 -16 69 -29 79 -29 9 0 15 -6 13 -12 -3
-8 -35 -15 -89 -19 -75 -6 -89 -4 -137 17 -29 13 -60 24 -70 24 -9 0 -53 23
-97 50 -44 28 -91 56 -105 62 -14 7 -29 18 -33 25 -4 7 -14 13 -22 13 -8 0
-19 9 -25 20 -6 11 -17 20 -25 20 -25 0 -17 -19 16 -35 16 -9 47 -31 67 -49
20 -18 75 -52 122 -75 46 -23 99 -53 117 -67 40 -30 136 -74 163 -74 24 0 35
-16 16 -23 -21 -8 -168 8 -193 22 -28 14 -56 14 -47 0 5 -9 -9 -10 -50 -5 -63
8 -127 -1 -105 -14 7 -5 62 -12 121 -16 60 -3 111 -11 114 -15 3 -5 20 -9 37
-8 27 0 29 2 12 9 -18 8 -17 9 7 9 14 1 35 -2 45 -6 16 -6 15 -8 -7 -14 -16
-5 1 -8 50 -9 57 -2 68 -4 45 -10 l-30 -8 30 -2 c30 -2 30 -2 5 -11 -18 -6
-11 -7 23 -3 30 3 54 1 63 -7 11 -9 14 -9 14 1 0 10 15 11 58 7 75 -9 134 -26
127 -38 -4 -5 5 -9 19 -9 31 0 76 -20 76 -33 0 -6 8 -19 18 -30 17 -19 16 -19
-43 -13 -33 3 -70 6 -82 6 -12 0 -43 15 -70 34 -26 18 -55 33 -63 33 -8 1 -44
8 -79 16 l-63 16 23 -26 24 -25 -30 6 c-16 3 -58 10 -93 15 -35 6 -76 17 -92
25 -35 17 -191 39 -240 34 l-35 -4 40 -12 c22 -7 65 -16 95 -21 30 -6 84 -15
120 -21 36 -6 105 -25 154 -41 49 -17 121 -33 160 -36 39 -3 95 -11 124 -19
53 -13 112 -47 112 -65 0 -5 10 -9 23 -9 12 0 38 -10 57 -23 19 -12 53 -29 75
-36 52 -17 164 -72 171 -83 9 -14 -41 1 -163 48 -62 24 -122 44 -133 44 -12 0
-19 4 -16 9 3 5 -7 11 -24 13 -16 2 -27 1 -24 -4 12 -18 -144 11 -246 47 -41
14 -97 28 -125 30 -63 4 -112 17 -195 48 -36 13 -96 27 -135 30 -66 6 -68 6
-40 -8 17 -8 38 -14 48 -15 10 0 30 -6 45 -13 15 -8 61 -20 102 -27 41 -7 93
-22 115 -35 22 -12 58 -24 80 -27 22 -3 70 -17 106 -32 36 -14 78 -26 93 -26
38 0 158 -48 176 -71 9 -11 26 -18 40 -17 14 1 48 -6 75 -14 28 -9 62 -19 78
-22 15 -4 27 -11 27 -17 0 -7 -10 -9 -27 -5 -16 4 -41 10 -58 12 -16 3 -45 13
-63 22 -27 14 -34 15 -41 3 -6 -9 -18 -12 -37 -7 -16 4 -50 11 -76 16 -26 5
-93 20 -149 34 -56 14 -123 26 -148 26 -25 0 -81 11 -123 24 -43 14 -78 21
-78 16 0 -5 6 -11 13 -13 6 -3 3 -6 -8 -6 -11 0 -40 9 -65 21 -42 20 -98 29
-265 43 l-70 5 65 -19 c90 -26 141 -46 135 -53 -8 -8 72 -17 120 -14 49 3 115
-11 135 -28 17 -16 89 -33 175 -42 33 -3 67 -13 76 -21 10 -8 48 -16 100 -18
90 -5 119 -11 119 -25 0 -5 -8 -11 -17 -13 -10 -3 0 -5 22 -5 31 1 167 -39
145 -41 -3 -1 -59 6 -125 15 -66 8 -145 17 -175 19 -30 3 -68 9 -85 15 -75 24
-156 41 -220 47 -38 3 -75 12 -83 19 -7 8 -21 14 -30 14 -13 0 -13 -2 4 -15
16 -13 13 -13 -31 1 -59 17 -188 44 -216 44 -11 0 -17 -4 -14 -10 7 -12 -15
-12 -70 -1 -22 5 -30 9 -17 10 50 2 16 19 -102 49 -68 18 -131 32 -141 32 -28
0 -6 -19 37 -32 39 -11 40 -13 17 -19 -13 -4 -42 -8 -64 -9 l-40 -2 30 -13
c25 -11 109 -21 250 -30 17 -1 57 -11 90 -23 38 -13 100 -23 170 -27 121 -6
185 -21 185 -42 0 -13 12 -17 40 -13 11 1 9 -3 -4 -13 -19 -14 -19 -15 2 -26
14 -7 23 -8 27 -1 3 5 3 10 -2 11 -4 0 14 7 41 14 42 12 62 12 131 0 45 -8
106 -25 136 -38 56 -25 109 -41 121 -39 20 5 153 -20 176 -32 43 -23 7 -28
-68 -10 -36 8 -85 17 -110 19 -55 4 -200 21 -295 35 -38 6 -92 12 -120 15
-175 16 -257 29 -320 50 -50 17 -111 27 -206 34 -73 5 -170 16 -214 24 -109
20 -253 31 -240 18 12 -12 181 -57 285 -76 l75 -14 -95 5 c-52 3 -113 11 -135
18 -22 8 -78 17 -125 21 -47 4 -124 18 -172 32 -47 13 -101 23 -120 21 l-33
-4 28 -12 c15 -6 71 -19 125 -28 110 -19 149 -33 89 -34 -23 0 -36 -4 -32 -10
3 -5 21 -10 40 -10 19 0 37 -4 40 -10 3 -5 27 -7 53 -5 26 3 67 1 92 -4 25 -6
86 -19 135 -29 50 -11 119 -33 155 -50 l65 -31 -150 -1 c-140 0 -278 -14 -200
-20 17 -1 82 -1 145 1 274 6 341 0 524 -54 107 -31 109 -32 72 -39 -24 -5 -73
-3 -132 7 -52 8 -107 15 -124 15 -16 0 -30 3 -30 8 0 10 -103 2 -114 -9 -6 -6
-6 -9 0 -9 5 0 38 -5 74 -10 68 -11 268 -27 480 -38 69 -4 130 -10 136 -14 21
-14 189 -41 241 -39 60 2 167 -15 200 -33 19 -9 0 -12 -109 -13 -142 -2 -314
-30 -225 -37 13 -1 27 -16 27 -29 0 -11 -238 -3 -335 11 -44 7 -106 15 -137
18 -32 3 -58 9 -58 13 0 3 51 0 113 -8 143 -19 292 -20 309 -3 10 9 1 12 -43
12 -31 0 -58 3 -62 6 -3 4 -53 7 -109 9 -57 1 -160 5 -230 10 -90 5 -128 5
-128 -3 0 -6 10 -13 23 -16 12 -3 -6 -3 -40 0 -41 3 -63 1 -63 -6 0 -19 49
-30 133 -30 87 0 239 -19 247 -31 3 -4 28 -9 55 -11 28 -3 75 -10 105 -16 30
-6 96 -16 145 -21 50 -4 117 -16 150 -24 33 -9 91 -16 129 -17 68 0 69 0 51
-20 -10 -11 -25 -20 -33 -20 -8 0 -20 -6 -26 -14 -13 -18 -185 -35 -301 -31
-72 2 -161 -6 -401 -35 -44 -6 -146 -10 -227 -10 -121 0 -147 -3 -147 -14 0
-8 8 -17 18 -19 9 -3 -4 -5 -30 -6 -27 0 -48 -5 -48 -10 0 -13 218 -25 304
-17 48 4 66 3 56 -4 -8 -5 -37 -10 -65 -10 -27 0 -57 -5 -65 -10 -22 -15 246
-3 311 14 34 9 109 14 204 14 134 0 147 -1 120 -13 -29 -14 -29 -14 20 -9 28
3 79 7 115 10 36 2 97 7 135 10 l70 6 -19 -21 c-19 -21 -19 -21 5 -21 50 0 52
-17 3 -24 -55 -8 -125 -36 -119 -47 11 -17 -70 -31 -196 -34 -75 -2 -145 -7
-155 -13 -11 -6 -32 -8 -48 -5 -36 7 -235 -17 -243 -30 -3 -5 43 -8 121 -5 69
2 126 0 126 -5 0 -5 15 -6 33 -2 l32 6 -25 -15 c-23 -14 -21 -14 35 -9 33 3
67 9 75 13 24 12 86 19 207 25 62 2 116 5 120 6 4 1 27 1 51 0 72 -2 46 -20
-30 -20 -110 0 -218 -8 -225 -15 -12 -12 5 -18 24 -8 20 11 103 4 103 -8 0
-13 -53 -31 -109 -36 -71 -6 -171 -24 -191 -35 -10 -6 -5 -7 15 -4 111 16 185
14 185 -5 0 -3 -27 -14 -60 -24 -44 -12 -66 -13 -80 -6 -27 14 -34 12 -20 -5
7 -9 11 -18 8 -20 -11 -11 -127 -47 -173 -55 -27 -4 -81 -17 -120 -29 -38 -12
-133 -33 -210 -47 -177 -33 -201 -47 -74 -41 72 4 110 11 157 31 81 34 126 35
61 1 -44 -23 -316 -95 -359 -95 -12 0 -19 -4 -16 -9 6 -10 -85 -46 -244 -97
-114 -36 -240 -88 -240 -98 0 -11 69 8 200 56 74 28 149 56 165 63 36 16 76
27 174 50 41 10 82 21 90 25 28 14 124 49 176 64 92 26 105 27 99 13 -2 -7
-44 -23 -92 -36 -48 -12 -101 -27 -118 -32 -17 -5 -38 -9 -47 -9 -20 0 -18
-23 3 -31 23 -9 -19 -27 -103 -43 -81 -16 -277 -74 -277 -83 0 -3 25 -3 56 0
89 8 51 -11 -87 -44 -146 -35 -159 -40 -141 -46 6 -3 9 -10 6 -15 -10 -16 56
-3 172 33 107 34 197 47 369 54 79 3 103 1 86 -6 -14 -5 -31 -7 -38 -5 -7 3
-13 2 -13 -3 0 -5 -35 -17 -77 -27 -43 -10 -94 -28 -113 -40 -19 -13 -47 -26
-62 -29 -15 -4 -32 -13 -39 -21 -9 -11 -2 -11 37 2 27 9 72 22 99 29 66 17
154 44 185 57 14 6 69 12 122 13 54 1 103 7 110 13 25 20 100 33 214 38 63 2
114 0 114 -4 0 -9 -85 -52 -103 -52 -8 0 -7 4 3 10 21 14 -3 13 -35 -2 -14 -6
-25 -14 -25 -18 0 -13 -51 -30 -93 -30 -23 -1 -69 -7 -102 -15 l-60 -14 59 6
c62 6 73 -9 16 -22 -16 -3 -46 -15 -67 -25 -21 -10 -61 -21 -89 -24 -27 -3
-66 -12 -85 -20 -19 -8 -71 -21 -116 -30 -45 -8 -108 -24 -139 -36 -32 -11
-60 -20 -61 -20 -2 0 -3 -4 -3 -10 0 -13 36 -13 61 0 23 13 89 19 89 9 0 -4
-30 -17 -66 -29 -36 -12 -63 -24 -60 -27 3 -3 19 0 35 7 17 6 36 10 43 7 9 -4
8 -6 -3 -6 -9 -1 -23 -9 -30 -18 -12 -15 -12 -16 6 -9 11 4 42 12 70 17 27 5
64 16 80 24 50 24 147 56 200 65 28 5 79 14 114 20 35 6 79 17 99 25 19 8 55
15 81 14 l46 -1 -35 -16 c-51 -24 -183 -114 -199 -136 -7 -10 -48 -41 -91 -70
-131 -87 -241 -168 -236 -173 9 -9 153 70 176 96 25 30 143 120 175 135 22 10
60 31 84 48 27 18 41 23 38 14 -4 -10 -1 -13 8 -9 8 3 12 9 9 14 -3 5 0 9 6 9
7 0 25 9 41 21 16 11 37 22 48 24 11 2 30 10 43 19 13 8 54 22 92 31 38 8 76
20 83 26 10 9 13 8 13 -5 0 -22 12 -20 41 5 30 26 88 51 101 43 5 -3 15 -1 21
5 7 5 22 10 32 9 11 0 40 4 65 10 25 6 48 8 52 4 11 -11 -15 -38 -42 -45 -14
-3 -56 -13 -93 -21 -89 -21 -116 -35 -65 -36 20 0 49 5 65 11 15 6 44 13 63
16 19 3 41 10 48 15 6 6 12 7 12 4 0 -18 -35 -37 -131 -71 -160 -56 -339 -115
-348 -115 -4 0 -32 -14 -62 -31 -62 -35 -50 -34 106 12 61 17 119 33 130 34
11 2 61 21 111 43 61 27 99 38 117 35 16 -3 37 1 52 11 13 9 33 16 43 16 20 0
173 67 182 80 6 8 36 20 78 30 27 7 31 6 22 -5 -8 -9 -8 -15 0 -20 5 -3 10 -2
10 2 0 25 206 70 226 50 3 -3 -30 -17 -73 -32 -43 -14 -117 -42 -165 -61 -48
-19 -94 -34 -101 -34 -15 0 -108 -34 -141 -52 -14 -7 -21 -6 -28 4 -8 10 -9 9
-5 -3 6 -19 -46 -45 -154 -79 -37 -12 -75 -27 -85 -35 -36 -27 44 -17 110 14
81 38 156 63 172 57 7 -3 26 2 42 9 44 23 122 31 122 14 -1 -23 -109 -70 -167
-72 -28 -1 -47 -5 -42 -8 6 -3 3 -11 -6 -19 -8 -7 -15 -9 -15 -6 0 4 -13 -2
-29 -13 -16 -12 -94 -43 -173 -70 -155 -52 -221 -80 -253 -105 -44 -34 56 -5
170 50 80 39 122 45 104 16 -12 -20 -86 -62 -107 -62 -23 0 -163 -51 -247 -90
-44 -20 -98 -43 -120 -50 -59 -19 -305 -118 -324 -131 -14 -9 -13 -10 4 -4 11
4 45 11 75 16 63 11 64 12 185 69 95 45 252 101 296 104 14 2 47 13 73 25 26
13 49 21 52 18 7 -7 -60 -49 -133 -85 -32 -15 -60 -29 -63 -32 -3 -3 -18 -7
-34 -8 -16 -1 -32 -5 -35 -8 -3 -4 8 -4 24 -1 l30 5 -28 -21 c-15 -12 -67 -42
-115 -67 -104 -56 -175 -100 -170 -106 10 -10 137 51 190 91 67 51 151 90 174
81 15 -6 14 -10 -7 -33 -13 -14 -60 -50 -104 -79 -102 -68 -120 -82 -112 -90
3 -4 27 6 52 21 50 29 70 28 36 -2 -12 -9 -21 -21 -21 -25 0 -15 190 49 257
87 24 13 65 27 91 31 26 3 55 8 66 10 21 4 61 28 91 55 45 41 69 59 78 59 6 0
65 27 131 59 126 61 184 82 170 60 -5 -9 -2 -10 10 -6 10 4 20 7 22 7 2 0 4 7
4 16 0 10 6 14 15 10 8 -3 15 -1 15 4 0 6 6 10 13 10 8 0 22 9 32 20 10 11 23
20 29 20 6 0 28 9 49 20 20 11 47 20 59 20 22 -1 22 -2 -6 -25 -16 -13 -44
-26 -63 -30 -32 -6 -47 -24 -20 -25 12 -1 -28 -25 -92 -54 -18 -9 -46 -16 -62
-16 -17 0 -37 -10 -51 -24 -13 -14 -57 -39 -98 -57 -41 -17 -77 -34 -80 -38
-3 -4 -29 -22 -57 -40 -29 -18 -53 -35 -53 -37 0 -13 210 87 279 133 44 30 62
30 25 1 -29 -22 -55 -45 -124 -106 -42 -37 -25 -42 44 -12 25 10 46 18 46 16
0 -2 -18 -16 -41 -30 -22 -15 -38 -30 -35 -33 3 -3 11 -1 18 4 7 6 24 14 38
18 14 4 65 35 113 69 113 78 98 70 202 115 142 61 187 64 94 5 -26 -16 -39
-32 -39 -47 0 -22 -31 -60 -110 -133 -25 -23 -76 -74 -115 -114 -66 -69 -68
-71 -30 -51 49 27 89 62 137 122 62 77 105 115 146 128 22 8 54 26 70 40 16
15 35 25 42 23 12 -4 32 19 30 34 -4 19 63 33 74 16 2 -4 -27 -41 -65 -81 -38
-40 -69 -76 -69 -81 0 -25 -70 -84 -135 -114 -88 -41 -157 -86 -132 -86 10 0
17 -6 16 -12 -6 -52 8 -60 43 -24 45 46 134 111 178 131 25 11 56 30 70 43 35
33 79 54 97 48 10 -4 13 -2 10 8 -3 8 1 17 9 20 8 3 14 1 14 -4 0 -5 8 -6 18
-3 9 4 -8 -19 -38 -51 -59 -61 -130 -103 -263 -157 -45 -19 -75 -35 -65 -37 9
-2 43 8 77 22 71 30 106 34 97 10 -3 -9 -6 -17 -6 -20 0 -10 -63 -34 -93 -34
-18 0 -41 -6 -51 -13 -16 -12 -9 -13 45 -9 59 4 63 3 50 -12 -23 -27 -6 -28
25 -1 16 14 34 25 39 26 6 0 27 1 48 3 l37 3 0 -46 c0 -44 -3 -48 -70 -109
-39 -35 -77 -77 -86 -94 l-16 -31 29 21 c17 12 54 43 83 69 30 26 50 41 45 33
-24 -42 -70 -91 -103 -111 -20 -12 -50 -36 -65 -53 -20 -22 -25 -25 -18 -9 38
77 -25 16 -109 -106 -26 -38 -72 -89 -225 -251 -161 -171 -190 -203 -175 -195
21 12 103 77 118 95 11 13 12 11 6 -10 -6 -25 -6 -25 26 5 17 17 47 60 65 96
37 73 93 122 175 152 72 28 174 81 178 94 2 6 -28 -1 -70 -17 -40 -16 -75 -27
-77 -25 -8 8 30 55 66 82 59 45 137 125 155 161 9 17 24 32 33 32 12 0 14 -8
9 -42 -7 -41 -67 -148 -84 -148 -4 0 -11 -8 -15 -17 -3 -10 12 0 35 22 23 22
38 32 35 23 -4 -10 -3 -18 3 -18 6 0 16 17 23 37 17 54 49 104 62 96 6 -3 7
-1 3 5 -4 6 -13 9 -21 5 -10 -3 -15 2 -15 16 0 12 6 21 13 21 8 0 7 4 -3 10
-13 9 -10 14 15 36 17 14 45 38 63 55 17 16 32 26 32 23 0 -12 -64 -109 -77
-117 -8 -5 -11 -12 -8 -18 4 -5 28 12 55 38 30 29 67 53 97 63 26 8 67 26 91
38 72 38 71 20 -2 -54 -38 -38 -84 -91 -101 -119 -28 -43 -142 -156 -240 -238
-16 -14 -39 -40 -49 -57 -22 -37 -13 -35 52 18 54 44 57 21 4 -34 -56 -56
-134 -155 -128 -161 10 -10 56 35 108 106 29 41 67 88 84 105 17 17 50 59 73
93 23 34 51 65 62 68 11 4 49 42 86 86 36 44 82 88 102 99 21 10 45 34 56 54
11 20 22 36 26 36 3 0 22 16 43 36 41 40 56 29 33 -25 -20 -47 -6 -216 18
-208 17 7 26 -74 14 -117 -6 -17 -7 -57 -3 -88 5 -49 9 -58 26 -58 18 0 19 -4
12 -42 -11 -68 -10 -73 9 -70 21 4 21 7 -3 -64 -26 -77 -26 -92 -2 -71 10 10
21 17 24 17 4 0 4 -57 2 -127 -4 -122 8 -212 26 -184 5 9 9 9 17 -1 11 -13 10
-48 -2 -90 -6 -22 -5 -22 9 -4 8 10 17 24 19 30 13 33 67 -111 67 -179 0 -32
18 -33 26 0 3 14 10 25 15 25 10 0 15 -20 24 -95 4 -27 13 -61 20 -75 26 -51
48 -147 48 -215 0 -38 2 -64 4 -57 6 16 23 16 23 0 0 -7 4 -19 9 -27 8 -12 13
-12 34 2 31 20 61 12 76 -20 24 -53 50 -141 60 -209 6 -39 17 -89 25 -111 8
-23 18 -62 22 -88 3 -25 17 -58 29 -73 29 -34 81 -206 91 -295 4 -42 12 -71
20 -74 15 -5 34 -86 34 -143 0 -22 4 -40 9 -40 5 0 12 -19 16 -42 4 -24 12
-52 19 -63 7 -11 18 -47 25 -80 7 -33 18 -69 25 -80 7 -11 18 -56 25 -100 6
-44 16 -102 21 -130 18 -103 70 -638 74 -755 1 -47 -1 -115 -5 -151 -13 -125
-60 -455 -75 -524 -9 -38 -17 -81 -19 -95 -1 -14 -10 -41 -18 -61 -10 -22 -16
-63 -16 -100 1 -35 -4 -76 -10 -91 -6 -15 -8 -34 -5 -42 6 -17 -47 -261 -83
-376 -14 -47 -41 -118 -59 -158 -19 -40 -34 -74 -34 -77 0 -8 -161 -334 -207
-417 -51 -94 -121 -195 -139 -202 -6 -2 -62 7 -125 20 -63 14 -177 39 -254 55
-77 17 -169 35 -205 40 -36 5 -99 16 -140 24 -41 7 -104 19 -140 25 -112 20
-445 23 -531 6 -41 -9 -96 -16 -124 -16 -58 0 -200 -24 -265 -44 -28 -9 -114
-16 -225 -20 -99 -3 -223 -12 -275 -21 -52 -9 -120 -18 -150 -21 -30 -3 -89
-13 -130 -23 -61 -14 -117 -17 -310 -16 -179 1 -243 -1 -268 -12 -64 -26 -183
-42 -339 -44 -87 -1 -225 -5 -308 -10 -82 -4 -204 -11 -270 -14 -234 -12 -361
-38 -505 -103 -36 -16 -92 -37 -125 -47 -33 -9 -86 -28 -117 -42 l-58 -26 0
-148 0 -149 4005 0 c3463 0 4005 2 4005 14 0 8 -4 48 -9 88 -47 372 -70 602
-61 612 5 5 16 -15 24 -45 9 -30 21 -61 27 -69 19 -28 0 60 -41 180 -21 63
-42 133 -45 155 -3 22 -15 90 -26 150 -33 188 -48 289 -44 293 1 2 6 -10 10
-27 4 -17 10 -31 15 -31 10 0 54 -113 95 -240 15 -47 30 -87 34 -90 12 -8 48
-129 65 -220 9 -47 21 -104 26 -127 5 -23 13 -67 16 -98 4 -30 10 -55 15 -55
4 0 10 -10 12 -22 9 -47 6 122 -3 232 -32 345 -133 799 -233 1035 -14 35 -28
91 -32 135 -3 41 -11 104 -16 140 -16 110 -128 521 -165 605 -22 51 -45 154
-69 305 -49 302 -72 403 -150 635 -13 39 -33 107 -45 153 -11 45 -46 153 -76
240 -66 184 -108 319 -130 417 -9 39 -21 78 -26 87 -5 10 -26 107 -48 215 -21
109 -46 223 -54 253 -57 214 -69 258 -73 280 -15 83 -102 355 -181 562 -36 93
-49 153 -31 143 9 -6 10 1 5 26 -15 71 -12 94 9 94 14 0 20 7 21 25 0 14 4 35
8 48 4 12 3 22 -2 22 -9 0 -30 71 -39 131 -7 53 12 57 54 10 20 -23 40 -41 45
-41 13 0 0 39 -21 70 -31 44 -33 64 -8 75 18 8 22 17 20 50 -1 22 -5 53 -9 68
-5 23 -3 29 15 34 11 3 21 12 21 19 0 8 8 14 18 14 9 0 53 12 97 27 102 36
148 79 170 160 26 96 57 187 67 200 14 18 89 28 98 13 6 -9 11 -7 19 8 6 11
24 22 43 25 157 25 310 81 358 132 33 35 381 149 516 169 368 54 346 54 779
31 160 -9 389 -22 510 -30 279 -19 474 -19 795 0 326 20 510 41 530 60 23 24
-10 75 -125 191 -116 117 -200 174 -415 284 -165 83 -291 131 -564 211 -174
51 -489 167 -676 247 -58 24 -139 57 -180 72 -75 28 -106 53 -83 68 12 8 65
134 62 148 -4 17 16 49 31 49 8 0 14 6 12 14 -1 7 9 29 24 48 23 31 25 39 15
55 -11 17 -9 22 10 36 l22 15 -21 8 c-12 5 -22 16 -22 26 0 10 -7 38 -16 62
-9 28 -13 59 -9 82 4 20 2 39 -3 42 -4 4 -8 32 -7 64 1 32 -2 63 -7 69 -5 7
-8 16 -7 20 1 5 -3 22 -9 37 -7 16 -12 33 -12 38 0 11 -27 80 -63 162 -11 26
-27 53 -34 59 -7 6 -13 20 -13 32 0 13 -13 40 -30 62 -16 21 -30 50 -30 64 0
23 -38 70 -56 70 -4 0 -26 18 -48 40 -23 22 -59 57 -82 77 -22 21 -47 49 -54
63 -7 14 -21 31 -32 38 -10 7 -18 19 -18 26 0 7 -17 25 -37 39 -21 15 -43 35
-50 46 -7 10 -36 28 -66 39 -29 11 -70 36 -91 55 -59 54 -67 60 -131 91 -32
16 -76 29 -97 30 -24 0 -38 6 -38 13 0 7 -9 13 -21 13 -11 0 -28 4 -38 9 -10
6 -40 11 -67 12 -27 1 -56 8 -64 14 -8 7 -31 16 -50 20 -19 4 -39 9 -43 12 -4
3 -69 7 -144 9 -90 2 -139 8 -144 15 -6 11 -36 17 -96 20 -12 1 -36 -9 -52
-21 -17 -11 -35 -19 -40 -15 -5 3 -12 1 -16 -5 -10 -16 -35 -12 -35 6 0 11 -8
14 -32 12 -25 -2 -33 1 -36 16 -2 11 4 26 14 33 10 7 14 13 9 13 -4 0 -23 -11
-41 -25 l-32 -24 20 42 c11 23 28 51 38 62 21 24 34 69 31 107 -1 15 6 39 16
55 16 26 16 27 0 14 -9 -7 -17 -12 -17 -10 0 5 26 87 35 114 4 11 -8 -3 -26
-30 -83 -123 -143 -195 -152 -183 -6 9 -7 8 -4 -4 3 -9 -4 -28 -17 -43 l-23
-27 -5 31 c-3 18 1 44 9 58 14 28 8 47 -7 23 -6 -8 -10 -10 -10 -5 0 6 -5 3
-10 -5 -7 -11 -10 -8 -10 16 0 23 5 33 20 37 15 4 20 13 20 39 -1 30 -2 31
-14 16 -18 -24 -25 -22 -19 5 4 19 3 20 -9 6 -7 -9 -19 -14 -25 -12 -8 3 -13
-4 -13 -16 0 -12 -7 -24 -15 -27 -10 -4 -15 -18 -14 -38 2 -36 -13 -78 -40
-112 -12 -15 -17 -33 -13 -47 5 -19 3 -20 -10 -9 -9 7 -22 10 -30 7 -11 -5
-14 1 -10 25 2 16 8 30 13 30 5 0 9 7 9 16 0 8 13 29 30 45 23 24 25 29 10 24
-23 -7 -28 13 -8 33 10 10 10 17 -1 33 -9 15 -10 24 -2 32 6 6 11 7 11 1 0 -5
11 16 23 46 16 41 28 56 45 58 12 2 22 -1 22 -7 0 -6 7 -11 15 -11 9 0 15 -9
15 -25 0 -24 1 -24 18 -7 18 18 63 181 61 223 -1 21 -3 20 -16 -11 -9 -19 -23
-62 -33 -94 -18 -67 -47 -93 -37 -35 5 33 5 33 -6 7 -9 -23 -15 -26 -36 -21
-42 10 -53 23 -46 57 18 84 39 137 68 172 36 43 82 114 73 114 -3 0 -17 -12
-32 -27 l-26 -28 6 44 c7 48 29 95 57 126 26 29 79 136 79 162 0 12 4 24 9 28
13 7 41 106 41 143 0 16 11 54 24 83 13 30 26 70 29 89 5 30 2 27 -23 -25 -16
-33 -29 -69 -30 -79 0 -10 -20 -63 -45 -117 -48 -105 -55 -132 -30 -123 29 12
15 -21 -20 -45 -23 -16 -50 -53 -85 -117 -27 -52 -50 -101 -50 -109 0 -7 -11
-27 -25 -42 l-26 -28 2 25 c1 14 -1 33 -6 43 -4 9 -4 28 -1 42 4 14 2 25 -4
25 -12 0 -37 -47 -60 -114 -10 -28 -22 -50 -28 -49 -5 1 -8 -6 -5 -17 3 -12
-1 -22 -10 -26 -10 -3 -21 -28 -27 -62 -68 -332 -67 -327 -88 -310 -11 9 -14
10 -8 1 4 -7 3 -13 -3 -13 -20 0 -24 71 -5 101 5 9 1 11 -14 7 -19 -5 -22 -2
-22 26 0 17 6 41 14 52 8 11 17 38 20 60 3 21 8 50 11 64 4 21 4 22 -4 5 -8
-19 -9 -19 -12 4 -4 25 -28 43 -26 19 1 -7 -2 -33 -7 -58 -9 -44 -9 -44 -17
-16 -5 18 -3 44 6 70 7 22 17 58 21 79 8 48 18 40 16 -13 -1 -22 0 -40 3 -40
15 0 72 176 61 188 -2 1 -14 -13 -27 -33 -13 -19 -27 -35 -31 -35 -5 0 -8 24
-9 53 l-1 52 -10 -37 c-6 -21 -16 -38 -23 -38 -8 0 -17 -10 -20 -22 -4 -13
-13 -36 -20 -53 -28 -60 -67 -161 -76 -200 -10 -40 -25 -65 -39 -65 -12 0 -38
109 -44 182 -2 37 -9 75 -14 84 -5 9 -7 25 -5 34 3 10 0 21 -6 24 -11 7 -12
-13 -14 -158 0 -43 -2 -47 -14 -30 -15 20 -14 11 -16 236 -1 93 -5 168 -9 168
-10 0 -9 56 1 90 5 15 3 35 -6 52 -8 17 -11 50 -8 94 4 70 -24 241 -43 253 -5
3 -15 24 -22 45 -7 22 -21 49 -32 60 -33 36 -42 86 -22 131 9 22 18 54 20 70
1 17 19 79 39 140 20 60 34 118 33 129 -3 18 -67 -133 -95 -223 -19 -64 -36
-202 -34 -291 1 -72 0 -74 -14 -50 -16 24 -16 23 -10 -25 14 -117 21 -222 15
-250 -5 -22 -10 -3 -18 70 -16 135 -21 255 -10 249 11 -7 10 13 -2 58 -6 21
-12 98 -13 172 -1 74 -5 132 -9 129 -5 -2 -8 8 -8 23 0 58 -12 12 -15 -57 -1
-40 -8 -75 -13 -77 -15 -5 -79 124 -87 174 -15 99 -31 156 -44 167 -12 10 -13
7 -7 -23 16 -80 16 -149 2 -225 -23 -117 -54 -295 -58 -330 -3 -27 -5 -25 -21
25 -10 30 -24 69 -31 85 l-14 30 -1 -42 c-1 -23 10 -78 24 -122 30 -95 44
-198 24 -186 -8 6 -10 4 -4 -5 8 -14 24 -147 30 -253 2 -32 6 -61 9 -64 9 -9
7 -28 -4 -58 -9 -23 -13 -25 -26 -14 -23 19 -74 131 -74 163 0 15 -7 43 -15
63 -8 19 -15 44 -15 54 0 11 -4 19 -10 19 -5 0 -10 -14 -10 -32 0 -19 -4 -28
-9 -23 -10 12 -82 219 -80 232 3 20 -2 34 -11 28 -5 -3 -12 7 -16 22 -4 15
-10 33 -14 38 -4 6 -12 33 -18 60 -6 28 -20 68 -32 90 -11 21 -20 48 -20 60
-1 23 -42 185 -52 200 -3 6 -14 48 -23 95 -9 47 -23 96 -31 110 -13 25 -13 24
-14 -16z m549 -243 c1 -19 4 -22 13 -13 9 9 20 -6 49 -67 58 -124 63 -146 63
-278 1 -68 0 -123 0 -123 -1 0 -9 33 -19 73 -9 39 -21 80 -26 90 -5 10 -16 64
-24 121 -16 113 -37 180 -49 151 -7 -20 9 -131 29 -195 7 -25 16 -67 20 -95 3
-27 8 -58 11 -67 3 -10 1 -18 -4 -18 -15 0 -34 52 -38 107 -2 29 -16 77 -29
105 -14 29 -23 44 -20 33 14 -68 17 -138 5 -145 -10 -6 -9 -13 4 -31 9 -13 16
-42 17 -64 0 -22 7 -56 14 -75 13 -34 13 -35 14 -7 1 40 16 26 57 -55 24 -47
34 -80 31 -97 -3 -14 -1 -34 4 -43 5 -10 14 -52 20 -95 25 -186 32 -304 18
-280 -15 26 -21 61 -23 135 -1 38 -6 66 -14 71 -7 4 -15 41 -19 90 -4 53 -11
85 -19 88 -7 2 -16 23 -20 46 -3 23 -13 51 -21 62 -14 18 -15 15 -9 -40 3 -33
15 -109 27 -168 11 -60 18 -111 15 -114 -3 -4 -6 3 -6 15 0 12 -5 21 -10 19
-13 -3 -56 101 -64 151 -3 21 -8 57 -10 82 -3 25 -17 72 -32 104 -22 49 -27
72 -26 134 1 41 6 80 12 87 5 6 7 14 4 18 -3 3 1 41 10 84 30 151 35 192 30
230 -3 29 -2 33 5 18 5 -11 10 -31 10 -44z m266 -342 c46 -81 47 -89 54 -344
7 -256 1 -343 -15 -225 -4 36 -9 79 -10 95 -1 17 -11 73 -22 125 -11 52 -23
145 -27 205 -3 61 -8 130 -11 155 -7 51 -4 50 31 -11z m-1685 -155 c0 -8 3
-13 8 -12 12 4 51 -35 45 -45 -3 -6 -1 -7 6 -3 16 10 43 -13 37 -31 -3 -8 -1
-11 4 -8 9 5 86 -71 84 -84 0 -3 10 -14 22 -24 33 -25 56 -76 44 -96 -8 -14
-9 -14 -10 2 0 9 -5 17 -11 17 -5 0 -7 -6 -4 -12 12 -22 -84 85 -112 125 -14
20 -31 37 -37 37 -22 1 -65 46 -110 117 -25 39 -46 74 -46 77 0 4 18 -6 40
-20 22 -15 40 -33 40 -40z m1060 -17 c0 -5 -4 -5 -10 -2 -5 3 -10 14 -10 23 0
15 2 15 10 2 5 -8 10 -19 10 -23z m-1481 -3 c14 -12 -19 -1 -35 12 -18 14 -18
14 6 3 14 -6 27 -13 29 -15z m1385 -109 c34 -50 37 -60 30 -100 -3 -25 -10
-45 -14 -45 -4 0 -20 39 -35 88 -15 48 -33 97 -42 110 -14 22 -13 23 5 13 11
-6 36 -35 56 -66z m605 30 l0 -20 -9 20 c-5 11 -9 27 -9 35 -1 13 0 13 9 0 5
-8 9 -24 9 -35z m-1854 -45 c10 -11 16 -20 13 -20 -3 0 -13 9 -23 20 -10 11
-16 20 -13 20 3 0 13 -9 23 -20z m1652 -32 c-3 -7 -5 -2 -5 12 0 14 2 19 5 13
2 -7 2 -19 0 -25z m-1507 -88 c0 -5 9 -10 19 -10 11 0 26 -8 33 -17 7 -10 31
-30 53 -45 61 -42 148 -119 141 -125 -2 -2 21 -27 52 -56 30 -29 61 -65 67
-82 7 -16 31 -48 52 -70 32 -33 73 -95 73 -112 0 -2 -15 13 -32 34 -18 20 -59
62 -92 93 -105 99 -181 182 -180 196 1 8 -3 14 -10 14 -6 0 -18 5 -26 10 -13
9 -13 11 0 21 13 9 13 10 -2 6 -9 -3 -22 1 -29 9 -6 8 -14 12 -17 9 -10 -10
-71 57 -65 71 3 8 0 14 -7 14 -6 0 -8 5 -4 12 5 8 2 9 -11 4 -11 -4 -22 -2
-27 6 -11 18 -10 28 2 28 6 0 10 -4 10 -10z m1200 -41 c0 -5 9 -28 19 -52 27
-59 31 -85 20 -116 -9 -25 -9 -25 7 -6 10 12 14 14 11 5 -2 -8 3 -24 13 -35 9
-11 22 -40 29 -65 7 -25 22 -65 32 -89 11 -25 17 -52 13 -63 -6 -19 -7 -18
-19 8 -43 92 -55 125 -57 153 -3 38 -35 73 -47 52 -6 -9 -11 0 -16 26 -4 21
-10 43 -15 48 -17 20 -17 160 0 150 6 -3 10 -10 10 -16z m609 -44 c-1 -35 -2
-37 -9 -15 -4 14 -8 39 -9 55 0 23 2 26 9 15 5 -8 9 -33 9 -55z m-250 -2 c7
-27 19 -64 28 -83 31 -72 44 -123 38 -148 -5 -21 -8 -23 -16 -11 -7 11 -9 8
-9 -10 0 -40 -10 -19 -41 88 -28 97 -39 211 -20 211 4 0 14 -21 20 -47z
m-1113 -28 c-2 -7 4 -18 15 -26 10 -7 19 -17 19 -22 0 -14 -20 4 -51 45 -36
51 -39 80 -4 42 14 -15 24 -33 21 -39z m-212 6 c-6 -6 -24 19 -24 34 1 6 7 1
15 -9 8 -11 12 -22 9 -25z m355 -112 c-8 -4 -7 -14 2 -30 11 -22 11 -23 -4
-10 -10 7 -17 24 -17 38 0 13 -5 34 -11 46 -7 15 -3 13 15 -8 16 -18 21 -32
15 -36z m1228 29 c-3 -7 -5 -2 -5 12 0 14 2 19 5 13 2 -7 2 -19 0 -25z m-299
-33 c-3 -25 -2 -48 3 -51 11 -7 12 -44 1 -44 -4 0 -13 18 -19 40 -6 23 -6 40
-1 40 5 0 6 5 3 10 -3 6 -3 19 0 30 11 35 18 22 13 -25z m-1268 -95 c38 -38
170 -181 198 -215 4 -5 22 -22 39 -36 35 -29 89 -107 80 -115 -3 -3 -20 9 -39
28 -18 18 -45 39 -59 47 -42 21 -128 100 -144 131 -17 34 -113 150 -166 201
-20 20 -42 46 -48 57 -15 29 76 -36 139 -98z m1095 111 c3 -5 1 -12 -5 -16 -5
-3 -10 1 -10 9 0 18 6 21 15 7z m425 -38 c0 -7 -4 -13 -10 -13 -5 0 -10 12
-10 28 0 21 2 24 10 12 5 -8 10 -21 10 -27z m-1205 -15 c30 -35 75 -124 75
-146 0 -9 -8 -5 -20 11 -11 14 -20 30 -20 36 0 6 -4 11 -8 11 -5 0 -23 27 -40
60 -35 66 -29 78 13 28z m815 -30 c0 -15 -18 -8 -24 10 -3 9 -9 24 -12 32 -3
8 4 4 15 -10 11 -14 21 -28 21 -32z m-1790 17 c7 -8 8 -15 2 -15 -5 0 -15 7
-22 15 -7 8 -8 15 -2 15 5 0 15 -7 22 -15z m1140 -18 c0 -4 11 -19 24 -32 38
-38 73 -88 79 -112 12 -52 -34 -6 -79 78 -16 30 -32 56 -37 57 -4 2 -12 13
-18 23 -9 18 -8 19 10 7 12 -7 21 -16 21 -21z m290 -52 c0 -8 14 -40 30 -70
17 -30 30 -65 30 -77 0 -20 -1 -19 -25 6 -14 15 -25 38 -25 51 0 13 -4 26 -9
29 -5 3 -11 24 -13 45 -2 22 0 37 4 35 5 -3 8 -12 8 -19z m380 -19 c0 -6 -7
-2 -15 8 -8 11 -15 25 -15 30 0 6 7 2 15 -8 8 -11 15 -25 15 -30z m-935 -6 c3
-5 1 -10 -4 -10 -6 0 -11 5 -11 10 0 6 2 10 4 10 3 0 8 -4 11 -10z m2002 -22
c-3 -8 -6 -5 -6 6 -1 11 2 17 5 13 3 -3 4 -12 1 -19z m-2646 -14 c21 -24 22
-26 3 -16 -25 13 -50 42 -37 42 5 0 20 -12 34 -26z m1819 -20 c0 -8 -4 -14 -9
-14 -11 0 -22 26 -14 34 9 9 23 -3 23 -20z m826 -8 c-2 -11 -10 -49 -16 -83
-7 -34 -20 -69 -30 -78 -16 -14 -18 -12 -23 37 -6 45 -3 61 19 105 18 35 31
50 41 46 9 -4 13 -14 9 -27z m-1770 -47 c6 -54 -10 -33 -19 25 -4 27 -3 36 4
29 6 -6 13 -30 15 -54z m1488 -3 c-5 -36 -12 -50 -28 -56 -13 -6 -15 -9 -6
-10 13 0 13 -1 0 -10 -11 -7 -12 -12 -4 -17 7 -5 13 -33 14 -63 3 -76 2 -86
-10 -74 -16 16 -23 194 -9 223 6 15 16 36 22 49 16 35 28 11 21 -42z m-334 17
c0 -5 -5 -15 -10 -23 -8 -12 -10 -11 -10 8 0 12 5 22 10 22 6 0 10 -3 10 -7z
m-194 -28 c8 -21 -6 -41 -17 -24 -12 19 -11 39 1 39 6 0 13 -7 16 -15z m-476
-22 c0 -22 -2 -25 -10 -13 -13 20 -13 40 0 40 6 0 10 -12 10 -27z m90 -3 c0
-10 5 -22 10 -25 6 -3 10 -15 10 -26 0 -10 9 -28 20 -39 11 -11 20 -26 20 -32
-1 -21 -50 45 -50 67 0 16 -2 17 -10 5 -7 -11 -11 -9 -20 14 -11 31 -5 70 11
61 5 -4 9 -15 9 -25z m-381 -11 l16 -24 -24 16 c-27 17 -42 44 -21 37 7 -2 20
-15 29 -29z m-472 -94 c15 -22 41 -56 57 -75 38 -42 7 -22 -58 39 -47 45 -85
97 -100 136 -10 28 67 -48 101 -100z m-1270 63 c65 -44 63 -55 -3 -13 -33 20
-63 41 -69 47 -19 18 29 -5 72 -34z m1598 31 c11 -17 -1 -21 -15 -4 -8 9 -8
15 -2 15 6 0 14 -5 17 -11z m367 -6 c9 -10 19 -29 23 -41 6 -21 5 -22 -12 -14
-26 15 -59 72 -40 72 8 0 21 -8 29 -17z m-1386 -117 c68 -43 134 -106 134
-126 0 -5 19 -21 41 -36 23 -14 68 -52 101 -85 32 -32 65 -59 72 -59 23 0 96
-60 106 -86 6 -14 14 -23 19 -20 4 3 16 -3 26 -14 29 -32 5 -23 -70 27 -38 25
-95 58 -125 73 -30 16 -65 37 -78 48 -13 12 -30 18 -37 16 -7 -3 -33 3 -57 14
-23 10 -51 22 -60 25 -9 3 -29 25 -44 49 -15 24 -30 45 -34 48 -16 13 -58 77
-65 100 -11 39 -37 93 -54 115 -9 11 0 6 19 -11 19 -18 67 -52 106 -78z m1761
82 c-3 -8 -6 -5 -6 6 -1 11 2 17 5 13 3 -3 4 -12 1 -19z m-1532 2 c3 -6 -1 -7
-9 -4 -18 7 -21 14 -7 14 6 0 13 -4 16 -10z m833 -46 c-4 -3 -12 5 -18 18 -12
22 -12 22 6 6 10 -10 15 -20 12 -24z m-838 -43 c62 -38 100 -75 88 -83 -10 -6
-9 -8 3 -8 9 0 37 -20 63 -45 27 -25 52 -45 56 -45 11 0 104 -94 130 -130 l21
-30 -23 0 c-19 0 -16 -4 16 -21 21 -11 67 -49 103 -85 36 -35 69 -64 72 -64 4
0 18 -13 31 -28 14 -16 30 -31 35 -33 6 -2 25 -22 44 -44 19 -22 36 -38 37
-35 4 8 74 -51 85 -71 5 -11 8 -19 6 -19 -12 0 -145 108 -140 114 3 3 0 6 -7
6 -8 0 -37 19 -64 42 -28 24 -57 47 -65 53 -7 5 -50 45 -94 88 -45 42 -85 77
-90 77 -5 0 -7 7 -4 14 4 9 1 13 -7 10 -17 -7 -80 44 -108 87 -13 21 -26 35
-30 33 -3 -2 -33 26 -65 63 -32 37 -71 79 -88 95 -58 53 -75 71 -75 79 0 10
40 -1 70 -20z m-1545 -19 c33 -14 65 -30 70 -35 20 -19 -59 6 -129 40 -53 26
-62 33 -36 28 19 -4 62 -19 95 -33z m3129 12 c4 -9 4 -19 2 -21 -8 -8 -26 8
-26 23 0 19 16 18 24 -2z m559 -11 c8 -41 -9 -50 -22 -12 -14 40 -14 39 3 39
7 0 16 -12 19 -27z m-773 -47 c0 -5 -7 -3 -15 4 -8 7 -12 17 -9 22 7 10 24 -9
24 -26z m-1896 -11 c32 -15 57 -35 64 -50 6 -14 10 -25 8 -25 -11 0 -57 29
-58 36 0 5 -4 8 -10 6 -13 -3 -66 29 -72 45 -8 19 9 16 68 -12z m-633 -87 l24
-19 -40 6 c-22 4 -53 13 -70 20 l-30 12 46 0 c31 0 55 -7 70 -19z m619 12 c8
-5 11 -10 5 -10 -5 0 -17 5 -25 10 -8 5 -10 10 -5 10 6 0 17 -5 25 -10z m1750
-23 c0 -5 -4 -5 -10 -2 -5 3 -10 14 -10 23 0 15 2 15 10 2 5 -8 10 -19 10 -23z
m-2250 13 c0 -5 -7 -7 -15 -4 -8 4 -15 8 -15 10 0 2 7 4 15 4 8 0 15 -4 15
-10z m158 -19 c12 -6 48 -14 82 -18 33 -3 60 -10 60 -14 0 -5 13 -9 29 -9 39
0 96 -25 149 -66 25 -18 70 -45 101 -60 112 -51 147 -69 185 -96 21 -16 33
-28 25 -29 -8 -1 -3 -5 11 -9 21 -7 19 -8 -17 -9 -59 -1 -54 -27 7 -46 14 -4
34 -16 45 -26 77 -68 104 -89 112 -89 6 0 16 -7 23 -15 10 -12 -6 -9 -61 10
-41 14 -83 30 -94 35 -11 4 -27 11 -35 14 -8 4 -24 12 -35 19 -11 7 -40 23
-64 36 -49 26 -43 39 19 42 30 2 31 3 8 6 -16 2 -28 8 -28 12 0 5 -31 11 -70
14 -75 6 -140 31 -140 53 0 8 -7 14 -16 14 -9 0 -33 13 -53 29 -20 15 -52 36
-72 45 -46 21 -82 59 -85 88 -1 13 -3 26 -3 31 -1 4 -5 7 -10 7 -10 0 -9 -12
5 -57 8 -30 3 -29 -64 8 -111 61 -142 81 -142 93 0 15 94 5 128 -13z m-470 7
c-2 -6 14 -15 36 -20 22 -4 47 -19 58 -33 11 -14 27 -25 36 -25 20 0 192 -82
192 -91 0 -11 -103 -4 -126 8 -11 7 -26 19 -33 27 -8 9 -17 13 -22 10 -13 -8
-103 22 -187 62 -70 34 -74 38 -53 46 13 5 35 9 48 10 12 1 23 6 23 10 0 4 7
8 15 8 8 0 14 -5 13 -12z m1043 -36 c68 -32 91 -49 108 -78 l22 -36 -48 27
c-26 15 -55 33 -63 40 -8 7 -24 15 -35 19 -23 7 -85 58 -85 69 0 5 3 6 8 4 4
-2 46 -23 93 -45z m393 -1 c11 -12 14 -21 8 -21 -7 0 -12 5 -12 11 0 6 -6 9
-13 6 -17 -6 -28 1 -45 31 -13 23 -12 23 15 8 15 -7 37 -23 47 -35z m-1460
-56 c73 -31 69 -43 -5 -16 -30 11 -83 29 -119 39 -60 18 -63 21 -40 30 19 7
35 5 65 -9 22 -10 67 -29 99 -44z m376 39 c0 -2 -9 0 -20 6 -11 6 -20 13 -20
16 0 2 9 0 20 -6 11 -6 20 -13 20 -16z m3808 -36 c-12 -67 -74 -202 -89 -193
-6 4 -23 -4 -37 -18 -64 -59 -103 -62 -63 -3 17 24 27 47 23 50 -3 4 1 4 10 1
12 -5 15 -2 12 12 -3 10 4 28 15 39 11 12 18 24 16 26 -2 2 21 32 51 68 30 35
54 68 54 73 0 4 4 6 9 3 5 -3 4 -29 -1 -58z m-2963 -48 c10 -11 14 -20 9 -20
-5 0 -15 9 -22 20 -7 11 -11 20 -9 20 2 0 12 -9 22 -20z m619 -15 c51 -40 54
-45 29 -42 -20 2 -104 77 -87 77 6 0 32 -16 58 -35z m-1319 -3 c-3 -3 -11 0
-18 7 -9 10 -8 11 6 5 10 -3 15 -9 12 -12z m-400 -2 c13 -6 15 -9 5 -9 -8 0
-22 4 -30 9 -18 12 -2 12 25 0z m857 -4 c38 -16 77 -53 42 -39 -25 9 -84 44
-84 49 0 6 5 5 42 -10z m1151 -11 c8 -8 17 -11 21 -8 3 4 6 -1 6 -11 0 -9 4
-15 8 -12 5 3 15 -3 23 -12 8 -9 31 -35 50 -57 42 -46 58 -85 36 -85 -8 0 -20
6 -27 14 -6 8 -18 12 -26 9 -7 -3 -17 2 -20 11 -3 9 -10 13 -15 10 -11 -6 -49
54 -49 79 0 9 -5 17 -10 17 -6 0 -10 8 -8 18 2 9 -3 16 -9 15 -7 -2 -13 4 -13
12 0 19 14 19 33 0z m1863 -47 c-19 -27 -21 -19 -4 18 7 14 14 21 16 15 2 -6
-4 -21 -12 -33z m-3786 22 c8 -5 11 -10 5 -10 -5 0 -17 5 -25 10 -8 5 -10 10
-5 10 6 0 17 -5 25 -10z m249 -37 c91 -46 118 -69 45 -38 -22 9 -73 28 -114
42 -90 30 -107 43 -58 43 23 0 69 -17 127 -47z m1027 16 c4 -8 1 -8 -14 0 -12
6 -24 16 -28 22 -4 8 -1 8 14 0 12 -6 24 -16 28 -22z m-1199 -4 c20 -8 34 -18
30 -21 -3 -3 -22 4 -44 15 -45 24 -37 27 14 6z m989 -26 c19 -11 39 -30 45
-40 5 -11 14 -17 18 -15 4 3 17 -1 27 -9 26 -20 1 -19 -39 1 -53 27 -117 69
-117 77 0 14 33 7 66 -14z m274 -11 c0 -12 -25 -9 -38 4 -20 20 -14 27 13 15
14 -7 25 -15 25 -19z m-36 -37 c23 -16 48 -36 54 -44 10 -12 8 -13 -13 -9 -14
2 -32 16 -40 31 -8 14 -14 20 -15 12 0 -11 -5 -10 -20 4 -19 17 -26 35 -14 35
3 0 24 -13 48 -29z m-219 -89 c17 -14 21 -22 13 -25 -9 -4 -9 -6 2 -7 21 -1
79 -50 60 -50 -8 0 -26 6 -40 14 -14 8 -48 26 -76 40 -29 15 -58 34 -65 42
-11 14 -8 15 34 11 25 -3 58 -14 72 -25z m231 -47 c22 -24 22 -25 4 -25 -11 0
-20 7 -20 16 0 8 -4 12 -10 9 -5 -3 -10 -1 -10 4 0 6 -6 11 -13 11 -8 0 -22
10 -33 21 l-19 21 39 -16 c21 -9 49 -27 62 -41z m-1470 30 c81 -15 210 -60
220 -76 3 -5 16 -9 28 -9 44 0 220 -63 242 -87 13 -15 33 -23 53 -23 17 0 31
-4 31 -8 0 -13 -97 -6 -165 11 -33 8 -83 18 -112 21 -55 7 -199 74 -220 102
-12 16 -31 19 -93 11 -19 -2 -51 3 -70 11 -19 8 -68 21 -109 28 -41 7 -79 18
-84 23 -17 17 187 14 279 -4z m-161 -76 c16 -16 -30 -10 -51 7 -18 15 -18 15
11 9 17 -4 34 -11 40 -16z m65 -19 c13 -9 13 -10 0 -10 -8 0 -22 5 -30 10 -13
9 -13 10 0 10 8 0 22 -5 30 -10z m1079 -11 c17 -6 31 -15 31 -20 0 -15 -20
-10 -47 11 -30 23 -28 24 16 9z m358 -15 c-3 -3 -12 -4 -19 -1 -8 3 -5 6 6 6
11 1 17 -2 13 -5z m117 -63 c4 -5 -3 -7 -14 -4 -23 6 -26 13 -6 13 8 0 17 -4
20 -9z m-1177 -39 c12 -7 31 -12 42 -12 12 0 47 -9 78 -19 32 -11 74 -22 94
-25 21 -4 42 -13 49 -21 7 -8 21 -15 31 -15 10 0 20 -4 23 -9 3 -5 18 -12 33
-16 16 -3 42 -12 58 -20 17 -7 58 -21 93 -30 35 -10 65 -22 68 -26 2 -5 -14
-13 -37 -19 -39 -11 -46 -9 -126 29 -47 23 -89 38 -94 35 -13 -7 -119 42 -119
56 0 6 -10 8 -24 4 -22 -5 -126 39 -134 58 -2 4 -9 5 -16 2 -8 -3 -20 2 -29
10 -9 9 -22 16 -29 16 -8 0 -23 6 -34 14 -17 14 -16 14 16 7 20 -4 45 -13 57
-19z m365 -24 c16 -19 19 -20 14 -4 -5 14 -3 17 11 11 10 -4 37 -12 61 -19 40
-10 131 -72 132 -88 0 -14 -19 -8 -102 30 -46 21 -86 39 -90 41 -4 1 -20 6
-35 11 -16 5 -46 16 -68 24 l-40 15 48 1 c38 0 53 -5 69 -22z m410 -21 c10
-15 10 -37 1 -37 -16 0 -73 40 -73 51 0 15 61 3 72 -14z m61 -35 c13 -12 14
-17 5 -23 -7 -4 -19 1 -30 13 -34 40 -18 46 25 10z m-219 -22 c28 -10 35 -30
12 -30 -17 0 -66 39 -49 40 6 0 23 -4 37 -10z m-549 -48 c-3 -3 -11 0 -18 7
-9 10 -8 11 6 5 10 -3 15 -9 12 -12z m59 -42 c13 0 39 -12 56 -27 22 -18 34
-23 39 -14 6 8 20 7 57 -5 70 -24 73 -25 95 -61 l21 -33 -44 15 c-23 9 -56 21
-73 29 -16 7 -55 21 -85 31 -60 18 -130 59 -130 75 0 7 6 7 19 0 11 -5 31 -10
45 -10z m742 -25 c18 -14 16 -14 -16 -9 -44 8 -63 24 -29 24 14 0 34 -7 45
-15z m-203 -21 c55 -19 64 -29 43 -50 -15 -14 -19 -14 -48 0 -17 9 -35 16 -41
16 -5 0 -25 7 -44 16 -25 12 -31 19 -21 25 20 13 60 11 111 -7z m-228 -45 c71
-19 125 -41 119 -50 -3 -5 4 -9 15 -9 12 0 30 -9 40 -19 11 -11 37 -21 57 -23
21 -2 39 -8 41 -15 6 -19 -62 -8 -103 16 -19 12 -32 17 -29 11 10 -16 -30 -11
-92 11 -60 22 -88 42 -104 71 -12 21 -2 23 56 7z m433 -17 c12 -4 9 -8 -9 -15
-23 -10 -23 -10 11 -17 19 -3 49 -14 65 -23 l30 -17 -50 6 c-27 3 -65 15 -84
25 -20 10 -45 19 -56 20 -11 0 -14 3 -7 6 6 2 10 9 6 14 -3 5 -13 5 -25 -1
-22 -12 -43 -4 -33 12 6 10 120 3 152 -10z m-735 -57 c20 -8 39 -20 43 -27 6
-10 4 -10 -8 0 -9 7 -20 12 -24 11 -18 -4 -64 13 -58 22 7 11 5 12 47 -6z
m1041 -10 c20 -8 36 -19 36 -25 0 -9 -68 15 -84 31 -15 14 7 11 48 -6z m-1747
-31 c-3 -3 -12 -4 -19 -1 -8 3 -5 6 6 6 11 1 17 -2 13 -5z m1071 -19 c3 -3 3
-7 1 -10 -7 -6 -69 18 -69 26 0 8 58 -6 68 -16z m-370 -1 c50 -8 56 -22 7 -18
-56 4 -95 15 -95 26 0 6 10 8 23 5 12 -4 41 -9 65 -13z m466 -20 c22 -21 21
-22 -16 -15 -17 4 -33 12 -36 19 -6 18 34 15 52 -4z m-1761 -1 c-7 -2 -21 -2
-30 0 -10 3 -4 5 12 5 17 0 24 -2 18 -5z m132 -14 c36 -14 -36 -9 -80 6 l-40
13 50 -5 c28 -3 59 -10 70 -14z m1015 -20 c0 -5 5 -7 10 -4 6 4 48 -3 94 -14
47 -12 97 -21 113 -21 23 0 25 -2 13 -11 -11 -8 -7 -9 19 -5 18 3 50 2 70 -4
20 -5 63 -15 95 -21 l60 -11 -33 -14 c-46 -20 -64 -18 -161 16 -46 17 -92 30
-103 30 -11 0 -15 4 -11 11 5 8 -1 10 -19 5 -14 -3 -29 -1 -32 4 -4 6 -16 8
-27 4 -11 -3 -52 2 -91 11 -110 26 -121 34 -54 34 34 1 57 -3 57 -10z m703 0
c-8 -8 -16 -8 -30 0 -16 9 -14 10 12 11 21 0 26 -3 18 -11z m-1785 -17 c2 -6
14 -6 32 1 21 8 46 8 92 -1 35 -6 94 -14 132 -18 64 -6 67 -8 45 -19 l-24 -13
30 -4 c17 -2 -10 -4 -60 -5 -71 -1 -122 6 -240 34 -186 43 -189 44 -90 39 44
-3 81 -9 83 -14z m402 -36 c0 -2 -13 -6 -29 -8 -17 -2 -28 -1 -25 4 5 8 54 12
54 4z m1670 0 c0 -3 -4 -8 -10 -11 -5 -3 -10 -1 -10 4 0 6 5 11 10 11 6 0 10
-2 10 -4z m-1465 -36 c13 -6 5 -7 -25 -3 -25 3 -47 7 -49 9 -9 8 55 2 74 -6z
m126 -22 c44 -11 77 -23 75 -26 -5 -4 -167 36 -175 44 -10 9 26 3 100 -18z
m-176 -9 c5 -5 -1 -9 -15 -9 -14 0 -20 -4 -14 -8 13 -12 145 -42 185 -42 46 0
161 -25 201 -44 39 -17 112 -30 150 -27 14 1 29 -2 33 -8 10 -16 -99 -13 -170
4 -74 19 -155 34 -215 39 -43 4 -368 80 -400 93 -9 4 0 9 25 14 49 9 207 0
220 -12z m550 -3 c44 -7 92 -18 107 -24 14 -6 54 -14 87 -18 67 -7 85 -18 46
-28 -31 -8 -75 2 -75 18 0 8 -3 7 -8 -1 -6 -10 -13 -10 -32 0 -14 7 -38 14
-54 15 -16 1 -51 9 -79 17 -28 8 -61 15 -73 15 -13 0 -26 5 -29 10 -8 13 14
12 110 -4z m540 -6 c3 -5 29 -10 56 -10 53 0 103 -20 112 -44 5 -13 -1 -15
-41 -10 -26 4 -67 16 -92 27 -25 11 -61 21 -81 22 -20 1 -44 7 -55 13 -16 9
-9 11 38 12 31 0 60 -4 63 -10z m-238 -6 c-3 -3 -12 -4 -19 -1 -8 3 -5 6 6 6
11 1 17 -2 13 -5z m-389 -39 c17 -4 32 -11 32 -16 0 -11 -6 -11 -52 1 -21 6
-40 16 -44 21 -4 7 0 9 12 6 11 -3 34 -8 52 -12z m848 0 c12 -8 24 -12 27 -9
8 8 47 -6 47 -16 0 -5 -15 -7 -32 -3 -34 6 -88 30 -88 38 0 10 26 4 46 -10z
m-444 -26 c2 -7 12 -7 32 1 40 15 88 3 127 -31 33 -28 33 -28 10 -29 -29 0
-191 48 -205 61 -6 5 -1 9 11 9 12 0 23 -5 25 -11z m348 -49 c0 -15 -60 -22
-76 -9 -9 8 -11 15 -5 19 14 8 81 0 81 -10z m158 -34 c-16 -15 -128 -9 -128 6
0 5 12 7 30 3 16 -3 37 -2 46 3 9 5 27 7 41 4 20 -4 22 -7 11 -16z m-693 -66
c7 -12 -12 -12 -40 0 -18 8 -17 9 7 9 15 1 30 -3 33 -9z m-172 -77 c-7 -2 -21
-2 -30 0 -10 3 -4 5 12 5 17 0 24 -2 18 -5z m27 -32 c18 -5 21 -9 12 -15 -16
-10 -79 1 -87 14 -7 11 37 12 75 1z m183 -38 c-7 -2 -19 -2 -25 0 -7 3 -2 5
12 5 14 0 19 -2 13 -5z m-118 -32 c3 -6 28 -7 54 -4 55 6 105 -3 96 -17 -9
-14 -162 -13 -171 1 -4 6 -21 8 -43 5 -34 -6 -35 -5 -17 9 22 17 72 20 81 6z
m268 -18 c-7 -2 -19 -2 -25 0 -7 3 -2 5 12 5 14 0 19 -2 13 -5z m-578 -69
c-23 -9 -126 -21 -118 -13 4 4 22 9 38 12 39 5 93 7 80 1z m-236 -29 c-12 -12
-135 -9 -174 4 -23 8 -6 10 77 8 68 -1 103 -5 97 -12z m-404 -25 c-42 -11
-139 -11 -105 0 14 4 50 8 80 8 45 0 50 -2 25 -8z m1023 -25 c-2 -3 -34 -7
-69 -10 -42 -2 -57 -1 -44 5 21 9 122 14 113 5z m-85 -52 c-7 -2 -19 -2 -25 0
-7 3 -2 5 12 5 14 0 19 -2 13 -5z m135 -10 c-32 -8 -19 -23 20 -23 51 0 72
-14 44 -29 -24 -13 -111 -14 -131 -2 -7 5 -23 6 -35 3 -19 -6 -18 -7 9 -13 17
-4 -7 -6 -52 -4 -46 2 -85 -1 -88 -6 -10 -14 -87 -11 -82 4 2 6 17 12 33 13
29 1 34 2 114 34 61 24 77 28 135 28 28 0 42 -2 33 -5z m122 -7 c0 -9 -40 -13
-46 -5 -3 5 6 9 20 9 14 0 26 -2 26 -4z m-111 -311 c-17 -16 -129 -29 -129
-15 0 12 38 32 53 27 6 -2 27 2 46 9 39 13 54 2 30 -21z m-139 -9 c0 -3 -4 -8
-10 -11 -5 -3 -10 -1 -10 4 0 6 5 11 10 11 6 0 10 -2 10 -4z m-228 -38 c-9 -9
-15 -9 -24 0 -9 9 -7 12 12 12 19 0 21 -3 12 -12z m144 -3 c-31 -16 -91 -21
-81 -6 3 5 19 9 35 9 17 -1 33 2 37 5 3 4 13 7 22 7 9 0 3 -7 -13 -15z m244 5
c0 -5 8 -10 18 -10 26 -1 -42 -28 -80 -32 -45 -4 -44 21 2 38 44 16 60 17 60
4z m-525 -20 c4 -6 11 -7 17 -4 7 4 8 2 4 -4 -3 -6 -28 -14 -54 -17 -26 -3
-60 -9 -77 -11 -29 -5 -29 -4 10 19 42 26 89 34 100 17z m172 4 c-3 -3 -12 -4
-19 -1 -8 3 -5 6 6 6 11 1 17 -2 13 -5z m148 -24 c-3 -5 -10 -10 -16 -10 -5 0
-9 5 -9 10 0 6 7 10 16 10 8 0 12 -4 9 -10z m-575 -22 c-14 -6 -46 -22 -73
-35 -26 -13 -53 -23 -60 -20 -15 5 111 65 138 65 17 1 16 -1 -5 -10z m310 -6
c0 -4 -18 -18 -40 -32 -21 -13 -37 -26 -34 -29 2 -2 17 5 33 17 29 21 103 43
125 37 49 -14 51 -18 11 -26 -22 -4 -57 -8 -78 -8 -21 -1 -36 -5 -32 -10 9
-16 -12 -22 -103 -27 -48 -3 -96 -9 -107 -14 -50 -23 -282 -53 -298 -40 -7 6
18 18 98 50 50 20 87 29 101 23 8 -3 25 -1 37 4 74 34 287 75 287 55z m183 1
c-7 -2 -21 -2 -30 0 -10 3 -4 5 12 5 17 0 24 -2 18 -5z m-563 -157 c0 -2 -9
-6 -20 -9 -11 -3 -20 -1 -20 4 0 5 9 9 20 9 11 0 20 -2 20 -4z m40 -15 c0 -4
-15 -13 -32 -19 l-33 -11 35 4 c27 4 30 3 15 -4 -11 -5 -36 -10 -54 -10 -28
-1 -33 2 -23 12 12 11 66 34 85 36 4 1 7 -3 7 -8z m-300 -41 c-18 -16 -41 -30
-50 -30 -9 0 -20 -4 -25 -9 -12 -11 -125 -19 -125 -9 0 3 14 11 32 17 17 6 40
19 50 28 10 9 46 19 80 23 35 4 65 8 67 9 3 0 -11 -12 -29 -29z m134 -9 c3 -4
-19 -8 -49 -8 -30 0 -52 4 -49 8 3 5 25 9 49 9 24 0 46 -4 49 -9z m881 -41
c-3 -5 -14 -10 -24 -10 -10 0 -35 -7 -54 -15 -20 -8 -44 -15 -54 -15 -27 1 26
29 55 30 12 0 22 5 22 10 0 6 14 10 31 10 17 0 28 -4 24 -10z m549 -8 c2 -4
-7 -8 -22 -9 -24 -2 -24 -1 -7 7 11 5 21 9 22 9 1 1 4 -3 7 -7z m-524 -102
c-19 -13 -30 -13 -30 0 0 6 10 10 23 10 18 0 19 -2 7 -10z m497 -36 c-3 -3
-12 -4 -19 -1 -8 3 -5 6 6 6 11 1 17 -2 13 -5z m543 -34 c0 -5 -5 -10 -11 -10
-5 0 -7 5 -4 10 3 6 8 10 11 10 2 0 4 -4 4 -10z m-1594 -9 c-6 -9 -46 -22 -46
-15 0 3 10 9 23 14 29 11 29 11 23 1z m874 -26 c-14 -8 -29 -14 -35 -14 -5 0
1 6 15 14 14 8 30 14 35 14 6 0 -1 -6 -15 -14z m432 8 c-6 -2 -10 -9 -7 -14 4
-5 -1 -6 -9 -3 -20 8 -11 24 12 23 11 0 12 -2 4 -6z m591 -13 c16 0 -14 -20
-30 -20 -7 0 -13 7 -13 16 0 11 5 14 16 10 9 -3 21 -6 27 -6z m-1133 -25 c-13
-15 -71 -35 -105 -35 -19 0 -19 0 0 14 25 16 74 34 99 35 15 1 16 -2 6 -14z
m517 9 c-3 -3 -12 -4 -19 -1 -8 3 -5 6 6 6 11 1 17 -2 13 -5z m543 -24 c0 -5
-4 -10 -9 -10 -5 0 -18 -3 -28 -6 -16 -6 -16 -5 2 9 23 19 35 21 35 7z m-2385
-20 c-11 -5 -33 -9 -50 -9 -23 -1 -26 2 -15 9 8 5 31 9 50 9 29 0 31 -2 15 -9z
m1735 1 c0 -12 -29 -35 -36 -28 -4 3 -13 0 -21 -8 -16 -17 -58 -21 -48 -5 6
10 83 49 98 50 4 0 7 -4 7 -9z m740 -1 c13 -8 12 -11 -5 -25 -36 -28 -56 -37
-71 -31 -8 3 -12 2 -9 -3 3 -5 1 -12 -5 -16 -5 -3 -10 -11 -10 -18 0 -8 3 -8
12 1 7 7 17 12 22 12 20 0 -86 -69 -115 -75 -16 -4 -33 -15 -39 -24 -5 -10
-23 -24 -40 -31 -16 -7 -30 -16 -30 -21 0 -5 -15 -9 -32 -9 -42 0 -78 -10 -78
-21 0 -5 14 -9 32 -9 28 0 30 -2 18 -13 -20 -18 -127 -64 -165 -71 -16 -4 -24
-3 -16 0 11 5 11 8 0 16 -11 8 -10 8 4 4 11 -3 20 0 23 9 4 8 11 15 16 15 12
0 64 40 61 46 -9 13 1 34 30 65 41 45 106 94 113 86 4 -3 23 3 42 14 39 20 72
25 72 10 0 -5 9 -7 20 -4 11 3 20 13 20 23 0 18 23 44 32 35 2 -3 15 6 28 20
25 26 45 31 70 15z m-2570 -14 c0 -2 -7 -7 -16 -10 -8 -3 -12 -2 -9 4 6 10 25
14 25 6z m1550 -61 c0 -7 -57 -35 -72 -35 -16 0 42 38 60 39 6 1 12 -1 12 -4z
m75 -4 c3 -5 1 -13 -5 -16 -8 -5 -7 -11 1 -21 9 -11 7 -14 -12 -16 -13 -1 -33
-2 -44 -3 -30 -2 -108 -40 -125 -60 -14 -17 -13 -17 5 -7 52 29 96 43 122 40
26 -3 24 -5 -27 -30 -30 -15 -74 -32 -98 -38 -23 -6 -40 -15 -37 -20 4 -6 -1
-10 -9 -10 -8 0 -19 -6 -23 -13 -8 -13 -94 -57 -112 -57 -14 0 -81 -41 -81
-49 0 -3 -21 -17 -47 -31 -27 -13 -60 -37 -74 -52 -14 -15 -66 -45 -115 -68
-48 -22 -91 -44 -94 -48 -3 -4 -25 -14 -50 -21 -54 -16 -144 -48 -185 -66 -39
-18 -47 -9 -15 16 14 11 41 35 60 53 19 18 62 47 95 65 34 17 79 47 100 66 22
19 48 35 57 35 14 0 104 48 198 106 57 35 118 58 165 61 67 6 84 11 66 22 -10
6 -3 12 23 21 20 6 54 29 75 49 38 37 101 62 139 56 9 -1 11 0 5 2 -17 6 -16
13 5 29 21 16 29 17 37 5z m95 -11 c-8 -5 -24 -9 -35 -9 l-20 0 20 9 c11 5 27
9 35 9 13 1 13 0 0 -9z m220 1 c0 -5 -13 -14 -30 -20 -35 -12 -40 -1 -7 15 29
15 37 16 37 5z m175 -42 c-7 -20 -45 -43 -45 -28 0 10 42 50 48 45 1 -2 0 -10
-3 -17z m-705 -19 c-8 -5 -19 -10 -25 -10 -5 0 -3 5 5 10 8 5 20 10 25 10 6 0
3 -5 -5 -10z m650 -20 c0 -5 -4 -10 -10 -10 -5 0 -10 5 -10 10 0 6 5 10 10 10
6 0 10 -4 10 -10z m-750 -10 c0 -16 -89 -69 -127 -76 -19 -4 -32 -9 -29 -12 3
-3 -27 -21 -67 -41 -39 -20 -94 -52 -122 -70 -54 -38 -158 -95 -192 -105 -35
-11 -18 25 25 54 20 13 47 36 59 51 23 27 121 84 130 76 8 -9 197 68 263 107
49 28 60 31 60 16z m1352 -22 c-7 -7 -12 -8 -12 -2 0 14 12 26 19 19 2 -3 -1
-11 -7 -17z m-47 -16 c-6 -4 -19 -25 -31 -47 -11 -22 -26 -39 -33 -37 -7 1
-10 -1 -7 -6 10 -17 -148 -162 -162 -147 -4 3 5 15 20 26 15 11 37 35 48 54
12 20 25 33 30 30 4 -3 11 6 14 20 6 23 24 47 83 108 19 19 30 24 37 17 7 -7
7 -13 1 -18z m-719 2 c-4 -9 -1 -23 5 -30 9 -11 8 -14 -5 -14 -9 0 -27 -7 -39
-15 -30 -19 -139 -57 -146 -50 -8 9 48 51 119 89 76 41 74 41 66 20z m39 -14
c-3 -5 -10 -10 -16 -10 -5 0 -9 5 -9 10 0 6 7 10 16 10 8 0 12 -4 9 -10z m572
-26 c-16 -14 -31 -23 -35 -19 -4 4 -1 10 6 12 7 3 18 11 25 19 7 7 16 13 22
14 5 0 -3 -12 -18 -26z m-107 -9 c-7 -9 -15 -13 -18 -10 -3 2 1 11 8 20 7 9
15 13 18 10 3 -2 -1 -11 -8 -20z m60 -25 c0 -5 -5 -10 -11 -10 -5 0 -7 5 -4
10 3 6 8 10 11 10 2 0 4 -4 4 -10z m-108 -15 c6 -7 -45 -60 -79 -82 -30 -20
-29 -11 2 24 55 63 65 70 77 58z m-717 -25 c-3 -5 -12 -10 -18 -10 -7 0 -6 4
3 10 19 12 23 12 15 0z m-40 -20 c-4 -6 -18 -15 -32 -21 -13 -5 -21 -13 -18
-19 8 -14 -64 -62 -165 -111 -68 -33 -81 -36 -65 -18 11 12 34 28 50 35 17 7
39 22 49 33 11 12 23 21 28 21 5 0 41 23 80 50 67 47 89 56 73 30z m420 -20
c-3 -5 -11 -10 -16 -10 -6 0 -7 5 -4 10 3 6 11 10 16 10 6 0 7 -4 4 -10z m510
-40 c3 -6 -1 -13 -9 -16 -9 -3 -16 -14 -16 -23 -1 -30 -34 -61 -73 -68 -21 -3
-37 -2 -37 4 0 5 22 33 49 61 48 51 73 63 86 42z m-225 -15 c0 -22 -116 -159
-165 -196 -11 -8 -25 -23 -31 -34 -6 -11 -19 -21 -28 -23 -24 -5 -19 15 6 21
12 4 20 9 16 12 -3 3 -17 0 -31 -6 -24 -11 -25 -13 -11 -34 13 -19 12 -23 -3
-37 -28 -24 -55 -34 -95 -37 l-37 -2 4 47 c4 47 20 78 36 68 5 -3 28 11 52 31
24 20 49 34 59 32 9 -3 25 5 36 17 11 11 34 32 52 46 17 14 53 42 78 63 44 35
62 44 62 32z m-1570 -50 c-7 -8 -18 -15 -24 -15 -6 0 -2 7 8 15 25 19 32 19
16 0z m1320 -1 c-8 -8 -23 -20 -34 -25 -15 -7 -13 -3 7 15 31 29 47 35 27 10z
m303 -8 c-10 -13 -26 -29 -35 -35 -14 -9 -16 -8 -11 7 6 18 42 51 56 52 4 0 0
-11 -10 -24z m55 -58 c-3 -7 -14 -17 -26 -23 -12 -5 -22 -13 -22 -17 0 -4 -8
-4 -17 -1 -12 5 -15 2 -11 -9 6 -15 -9 -33 -56 -63 -42 -28 -54 -12 -16 21 19
16 44 40 57 53 39 41 100 67 91 39z m-108 -4 c0 -11 -52 -55 -58 -50 -3 4 5
17 18 31 23 24 40 32 40 19z m-127 -137 c-71 -66 -113 -85 -113 -52 0 20 30
32 39 16 8 -12 27 3 75 62 16 20 34 33 42 30 9 -3 -6 -22 -43 -56z m213 44 c9
7 14 8 14 1 0 -12 -57 -62 -71 -62 -5 0 -9 -9 -9 -20 0 -33 -56 -86 -132 -125
-40 -20 -88 -46 -107 -57 l-33 -21 7 24 c13 43 49 102 70 113 11 6 22 13 25
16 3 3 24 14 47 24 23 10 52 28 65 40 12 11 40 36 63 55 33 28 41 31 43 17 3
-14 7 -15 18 -5z m-496 -105 c0 -8 -4 -18 -10 -21 -5 -3 -10 3 -10 14 0 12 5
21 10 21 6 0 10 -6 10 -14z m139 -81 c-24 -24 -47 -41 -50 -39 -3 1 -18 -10
-33 -27 -27 -28 -46 -37 -46 -21 0 5 12 19 28 32 15 13 48 43 75 67 62 57 86
46 26 -12z m-79 28 c0 -5 -10 -19 -21 -33 -18 -23 -19 -23 -9 -2 6 12 7 22 3
22 -4 0 -1 5 7 10 18 12 20 12 20 3z m320 -77 c0 -2 -7 -9 -15 -16 -13 -11
-14 -10 -9 4 5 14 24 23 24 12z m250 -980 c0 -3 -4 -8 -10 -11 -5 -3 -10 -1
-10 4 0 6 5 11 10 11 6 0 10 -2 10 -4z m3137 -3968 c-3 -7 -5 -2 -5 12 0 14 2
19 5 13 2 -7 2 -19 0 -25z m22 -260 c10 -24 22 -58 26 -76 3 -18 11 -32 16
-32 30 0 131 -325 179 -576 21 -109 7 -115 -23 -10 -15 55 -56 181 -92 282
-36 100 -65 187 -65 192 0 6 -19 45 -41 87 -33 60 -43 90 -47 143 -5 62 -4 65
12 50 9 -9 25 -36 35 -60z m238 -820 c-3 -8 -6 -5 -6 6 -1 11 2 17 5 13 3 -3
4 -12 1 -19z"/>
<path d="M4510 11599 c0 -5 5 -7 10 -4 6 3 10 8 10 11 0 2 -4 4 -10 4 -5 0
-10 -5 -10 -11z"/>
<path d="M4126 10582 c-9 -26 -1 -41 13 -26 5 5 5 18 1 29 -7 19 -7 19 -14 -3z"/>
<path d="M4200 10568 c0 -9 5 -20 10 -23 13 -8 13 5 0 25 -8 13 -10 13 -10 -2z"/>
<path d="M3943 10283 c9 -2 25 -2 35 0 9 3 1 5 -18 5 -19 0 -27 -2 -17 -5z"/>
<path d="M3194 10046 c11 -9 24 -16 30 -16 12 0 7 5 -24 19 -24 11 -24 11 -6
-3z"/>
<path d="M3080 7420 c0 -5 7 -7 15 -4 8 4 15 8 15 10 0 2 -7 4 -15 4 -8 0 -15
-4 -15 -10z"/>
<path d="M5105 12364 c10 -22 21 -54 27 -72 12 -44 81 -159 85 -145 4 12 -43
154 -55 162 -4 4 -16 24 -27 45 -27 54 -52 62 -30 10z"/>
<path d="M4230 12257 c0 -20 111 -195 144 -226 40 -39 47 -32 15 14 -11 17
-25 39 -30 50 -18 36 -34 60 -61 90 -14 17 -36 41 -47 55 -11 14 -20 21 -21
17z"/>
<path d="M5672 12210 c0 -14 2 -19 5 -12 2 6 2 18 0 25 -3 6 -5 1 -5 -13z"/>
<path d="M5681 12138 c-1 -15 4 -30 9 -33 12 -7 12 12 0 40 -8 18 -9 17 -9 -7z"/>
<path d="M4050 12107 c0 -2 14 -16 32 -33 30 -28 30 -17 0 19 -13 15 -32 23
-32 14z"/>
<path d="M5565 11980 c4 -97 31 -213 44 -192 9 16 -3 105 -28 207 l-20 80 4
-95z"/>
<path d="M4330 11987 c0 -14 70 -140 95 -171 38 -45 43 -22 10 41 -29 53 -104
147 -105 130z"/>
<path d="M7017 11826 c-10 -38 -16 -71 -13 -73 7 -8 38 105 34 125 -2 9 -12
-14 -21 -52z"/>
<path d="M5410 11849 c0 -9 10 -24 21 -35 22 -19 22 -19 11 1 -6 11 -16 27
-22 35 -8 13 -10 13 -10 -1z"/>
<path d="M5611 11685 c0 -42 5 -80 14 -95 13 -23 14 -23 16 -5 4 61 -5 126
-20 152 -8 14 -10 1 -10 -52z"/>
<path d="M4117 11733 c-3 -5 0 -19 8 -29 15 -20 18 -11 6 20 -4 11 -10 15 -14
9z"/>
<path d="M6957 11643 c-9 -17 -26 -55 -37 -85 l-20 -53 25 30 c34 41 57 91 53
118 -3 20 -5 20 -21 -10z"/>
<path d="M3998 11530 c13 -19 41 -68 63 -107 23 -40 44 -75 48 -77 4 -3 12 4
19 15 10 15 10 19 -2 19 -7 0 -23 23 -36 51 -21 51 -40 75 -89 114 l-25 20 22
-35z"/>
<path d="M3056 11512 c12 -11 64 -33 64 -27 0 5 -56 35 -67 35 -4 0 -3 -4 3
-8z"/>
<path d="M3450 11502 c0 -14 84 -89 130 -116 42 -25 39 -22 -32 48 -72 70 -98
88 -98 68z"/>
<path d="M3180 11456 c0 -3 9 -10 20 -16 11 -6 20 -8 20 -6 0 3 -9 10 -20 16
-11 6 -20 8 -20 6z"/>
<path d="M6852 11402 c-23 -53 -46 -142 -38 -149 7 -8 47 76 60 128 18 67 3
81 -22 21z"/>
<path d="M4160 11373 c8 -3 21 -10 28 -16 9 -7 11 -6 6 7 -3 9 -16 16 -28 15
-14 0 -16 -2 -6 -6z"/>
<path d="M3933 11363 c15 -2 39 -2 55 0 15 2 2 4 -28 4 -30 0 -43 -2 -27 -4z"/>
<path d="M6637 11295 c-19 -117 -19 -128 -8 -121 14 9 23 62 19 121 l-3 50 -8
-50z"/>
<path d="M6253 11315 c3 -11 9 -49 12 -85 9 -83 21 -107 27 -52 2 23 1 42 -2
42 -3 0 -6 19 -7 42 -1 24 -9 48 -19 57 -15 15 -16 14 -11 -4z"/>
<path d="M4145 11288 c35 -85 195 -279 195 -236 0 29 -142 219 -193 257 -16
13 -16 11 -2 -21z"/>
<path d="M5335 11240 c10 -11 20 -20 23 -20 3 0 -3 9 -13 20 -10 11 -20 20
-23 20 -3 0 3 -9 13 -20z"/>
<path d="M3237 11118 c7 -8 11 -17 8 -20 -3 -3 23 -17 57 -32 52 -21 169 -89
214 -123 22 -17 59 -35 48 -24 -34 37 -267 188 -319 207 -17 7 -18 5 -8 -8z"/>
<path d="M4165 11110 c3 -5 8 -10 11 -10 2 0 4 5 4 10 0 6 -5 10 -11 10 -5 0
-7 -4 -4 -10z"/>
<path d="M3582 10898 c5 -13 197 -138 212 -137 6 0 -11 19 -39 42 -27 23 -65
58 -84 77 -19 19 -32 27 -28 18 8 -22 -3 -23 -29 -3 -23 17 -37 19 -32 3z"/>
<path d="M3113 10843 c15 -2 37 -2 50 0 12 2 0 4 -28 4 -27 0 -38 -2 -22 -4z"/>
<path d="M6877 10707 c-11 -29 -9 -43 4 -30 6 6 9 19 7 29 -3 18 -4 18 -11 1z"/>
<path d="M6955 10700 c-3 -5 -1 -10 4 -10 6 0 11 5 11 10 0 6 -2 10 -4 10 -3
0 -8 -4 -11 -10z"/>
<path d="M2675 10340 c3 -5 11 -10 16 -10 6 0 7 5 4 10 -3 6 -11 10 -16 10 -6
0 -7 -4 -4 -10z"/>
<path d="M2000 9982 c0 -13 43 -20 165 -27 112 -6 104 9 -11 19 -38 4 -88 9
-111 12 -24 3 -43 1 -43 -4z"/>
<path d="M2920 9974 c0 -6 13 -9 30 -6 17 2 30 7 30 11 0 3 -13 6 -30 6 -16 0
-30 -5 -30 -11z"/>
<path d="M3118 9793 c6 -2 18 -2 25 0 6 3 1 5 -13 5 -14 0 -19 -2 -12 -5z"/>
<path d="M2064 9606 c11 -9 27 -16 35 -15 14 0 14 1 1 6 -8 3 -24 10 -35 15
-20 9 -20 9 -1 -6z"/>
<path d="M1305 9540 c7 -12 122 -12 150 0 13 6 -10 9 -68 9 -56 1 -86 -3 -82
-9z"/>
<path d="M2678 9523 c7 -3 16 -2 19 1 4 3 -2 6 -13 5 -11 0 -14 -3 -6 -6z"/>
<path d="M1598 9363 c6 -2 18 -2 25 0 6 3 1 5 -13 5 -14 0 -19 -2 -12 -5z"/>
<path d="M1770 9251 c0 -10 35 -16 143 -25 60 -5 80 10 25 18 -86 13 -168 17
-168 7z"/>
<path d="M2026 9222 c-5 -9 70 -34 147 -48 55 -9 46 10 -15 30 -70 22 -124 30
-132 18z"/>
<path d="M2710 9170 c-8 -5 -10 -10 -5 -10 6 0 17 5 25 10 8 5 11 10 5 10 -5
0 -17 -5 -25 -10z"/>
<path d="M2955 8960 c-17 -7 -14 -9 13 -9 20 -1 31 3 27 9 -7 12 -13 12 -40 0z"/>
<path d="M1968 8823 c7 -3 16 -2 19 1 4 3 -2 6 -13 5 -11 0 -14 -3 -6 -6z"/>
<path d="M1790 8810 c0 -6 32 -10 76 -10 47 0 73 4 69 10 -3 6 -37 10 -76 10
-39 0 -69 -4 -69 -10z"/>
<path d="M2858 8553 c7 -3 16 -2 19 1 4 3 -2 6 -13 5 -11 0 -14 -3 -6 -6z"/>
<path d="M2482 8535 c-34 -7 -66 -15 -69 -19 -15 -15 116 -3 157 14 l45 19
-35 -1 c-19 0 -63 -6 -98 -13z"/>
<path d="M1988 8236 c-31 -6 -60 -15 -65 -20 -13 -14 139 1 177 17 l35 15 -45
0 c-25 0 -71 -6 -102 -12z"/>
<path d="M2196 7832 c-3 -5 8 -6 25 -4 16 2 29 6 29 8 0 8 -49 4 -54 -4z"/>
<path d="M2938 7613 c-10 -2 -18 -9 -18 -15 0 -5 7 -7 16 -4 9 3 20 6 25 6 5
0 9 5 9 10 0 10 -3 11 -32 3z"/>
<path d="M2700 7406 c-84 -29 -140 -57 -134 -67 6 -10 123 30 189 65 62 31 34
33 -55 2z"/>
<path d="M2445 7315 c-62 -17 -150 -54 -143 -60 9 -9 121 21 163 44 22 12 48
18 60 15 16 -4 17 -3 5 5 -19 13 -23 13 -85 -4z"/>
<path d="M3740 7292 c-25 -9 -48 -21 -52 -27 -4 -5 -10 -6 -14 -2 -4 4 -13 -1
-20 -11 -7 -10 -34 -29 -61 -42 -26 -14 -55 -32 -63 -41 -18 -21 -178 -106
-234 -125 l-41 -15 50 46 c71 65 22 37 -114 -64 -123 -93 -233 -164 -266 -173
-11 -3 -28 -9 -37 -13 -29 -12 -20 10 10 26 15 8 29 17 32 20 3 3 25 19 50 36
45 31 89 73 76 73 -12 0 -176 -112 -176 -120 0 -5 -25 -21 -55 -35 -30 -15
-55 -30 -55 -32 0 -3 24 -3 53 1 49 6 51 5 32 -10 -28 -22 -145 -80 -210 -105
-60 -22 -85 -44 -38 -33 40 9 130 50 183 84 89 56 327 133 465 150 50 6 101
14 115 16 20 4 10 -10 -50 -68 -42 -40 -117 -104 -167 -143 -99 -75 -129 -111
-63 -74 45 26 93 65 159 129 25 25 68 61 94 79 27 18 64 47 83 64 35 30 116
54 122 36 3 -6 8 -6 15 -1 7 5 26 14 42 20 25 10 18 10 -40 5 -64 -5 -69 -4
-56 11 18 21 9 20 -31 -4 -20 -12 -51 -20 -77 -20 -42 0 -95 -11 -216 -45 -27
-8 -75 -17 -105 -21 -50 -7 -54 -6 -41 9 7 9 38 29 70 44 31 15 82 44 113 65
32 21 77 42 101 47 41 7 134 59 169 94 20 21 103 63 141 72 15 4 27 11 27 16
0 5 9 9 20 9 10 0 42 20 70 45 56 50 55 51 -10 27z"/>
<path d="M3978 7283 c7 -3 16 -2 19 1 4 3 -2 6 -13 5 -11 0 -14 -3 -6 -6z"/>
<path d="M3125 7147 c-38 -17 -72 -34 -75 -37 -11 -12 -90 -60 -99 -60 -5 0
-13 -4 -16 -10 -7 -11 12 -6 72 21 24 10 47 19 52 19 12 0 122 67 141 85 21
22 4 17 -75 -18z"/>
<path d="M3275 7119 c-22 -16 -64 -42 -95 -57 -30 -14 -62 -33 -70 -41 -13
-13 -11 -13 15 -7 60 15 131 57 163 96 18 22 32 40 30 40 -2 0 -21 -14 -43
-31z"/>
<path d="M2618 7002 c-42 -45 -88 -106 -88 -118 0 -13 89 77 112 114 29 46 18
48 -24 4z"/>
<path d="M2850 6999 c-19 -12 -61 -35 -93 -51 -32 -17 -57 -32 -55 -34 10 -9
80 20 143 61 69 44 73 65 5 24z"/>
<path d="M2514 6997 c-37 -22 -165 -130 -159 -135 7 -7 72 40 136 98 55 50 61
59 23 37z"/>
<path d="M3650 6955 c-7 -9 -10 -18 -7 -21 7 -8 47 14 47 26 0 15 -26 12 -40
-5z"/>
<path d="M3829 6872 c-13 -10 -32 -22 -42 -25 -10 -4 -16 -10 -13 -15 2 -4
-18 -32 -45 -62 -48 -54 -57 -70 -40 -70 12 0 171 167 171 180 0 14 -4 13 -31
-8z"/>
<path d="M2529 6821 c-75 -36 -106 -61 -113 -91 -7 -24 -5 -23 21 7 16 18 44
39 63 47 37 15 111 67 94 65 -5 0 -34 -13 -65 -28z"/>
<path d="M2719 6743 c-13 -15 -12 -15 9 -4 23 12 28 21 13 21 -5 0 -15 -7 -22
-17z"/>
<path d="M3619 6647 c-30 -27 -58 -60 -123 -146 -9 -12 -8 -12 10 -3 12 6 23
9 25 7 3 -2 25 24 49 57 44 60 82 118 77 118 -1 0 -18 -15 -38 -33z"/>
<path d="M2918 6492 c-29 -28 -50 -54 -46 -57 4 -4 31 15 60 43 29 28 50 54
46 57 -4 4 -31 -15 -60 -43z"/>
<path d="M3435 6432 c-27 -23 -125 -137 -125 -146 0 -14 99 76 126 115 30 44
30 56 -1 31z"/>
<path d="M3850 6307 c-20 -17 -47 -48 -62 -67 -14 -19 -51 -55 -83 -80 -31
-25 -67 -53 -79 -63 -20 -17 -20 -17 14 -1 87 42 188 132 230 207 12 20 20 37
18 37 -2 0 -19 -15 -38 -33z"/>
<path d="M2731 6291 c-31 -39 -40 -57 -22 -46 18 11 73 85 63 85 -6 0 -24 -18
-41 -39z"/>
<path d="M3205 6178 c-47 -49 -40 -50 13 -3 22 18 48 55 39 55 -1 0 -25 -23
-52 -52z"/>
<path d="M3789 6147 c-30 -42 -150 -259 -146 -264 7 -6 63 80 72 109 4 12 15
32 25 43 9 11 24 34 32 50 8 17 22 42 32 58 22 32 8 36 -15 4z"/>
<path d="M8001 869 c1 -19 5 -47 10 -64 5 -20 6 -9 2 30 -6 66 -14 88 -12 34z"/>
<path d="M8022 710 c0 -14 2 -19 5 -12 2 6 2 18 0 25 -3 6 -5 1 -5 -13z"/>
<path d="M8004 542 c4 -45 11 -60 22 -49 3 3 -1 25 -10 49 l-16 43 4 -43z"/>
<path d="M8029 476 c-3 -3 -3 -21 -1 -41 5 -38 22 -49 21 -12 -1 27 -13 60
-20 53z"/>
<path d="M8052 285 c0 -16 2 -22 5 -12 2 9 2 23 0 30 -3 6 -5 -1 -5 -18z"/>
</g>
</svg>
