<?xml version="1.0" standalone="no"?>
<!DOCTYPE svg PUBLIC "-//W3C//DTD SVG 20010904//EN"
 "http://www.w3.org/TR/2001/REC-SVG-20010904/DTD/svg10.dtd">
<svg version="1.0" xmlns="http://www.w3.org/2000/svg"
 width="1280.000000pt" height="1192.000000pt" viewBox="0 0 1280.000000 1192.000000"
 preserveAspectRatio="xMidYMid meet">
<metadata>
Created by potrace 1.15, written by Peter Selinger 2001-2017
</metadata>
<g transform="translate(0.000000,1192.000000) scale(0.100000,-0.100000)" stroke="none" fill="#375a7f">
<path d="M6200 9834 c-1174 -1147 -2173 -2122 -2219 -2168 l-83 -83 121 -573
c67 -315 120 -574 118 -577 -3 -2 -919 804 -2036 1791 -1117 987 -2035 1797
-2040 1801 -11 6 -51 -15 -51 -28 0 -5 774 -1124 1720 -2487 946 -1364 1727
-2492 1735 -2507 11 -20 30 -193 65 -598 28 -313 82 -922 120 -1352 39 -431
101 -1135 140 -1565 38 -431 83 -935 100 -1120 16 -186 30 -344 30 -353 0 -8
8 -15 18 -15 11 0 348 341 848 857 3138 3245 3234 3343 3258 3343 19 0 26 7
31 32 8 38 111 149 130 142 7 -3 60 52 123 128 60 73 124 146 141 162 l31 30
280 10 c225 9 282 14 294 26 7 8 568 798 1246 1755 678 957 1238 1746 1244
1753 9 9 135 -69 583 -362 348 -229 579 -374 592 -373 12 1 29 9 38 19 18 20
78 -73 -545 847 -267 394 -280 415 -266 436 14 22 14 22 -33 19 -27 -2 -138
-22 -248 -43 -545 -106 -635 -125 -632 -136 2 -12 -1854 -1547 -1861 -1540 -3
2 5 16 15 32 11 15 48 76 82 134 l61 106 -104 489 c-137 637 -365 1707 -616
2879 -110 517 -211 990 -225 1052 -14 62 -25 115 -25 118 0 45 -157 -105
-2180 -2081z"/>
</g>
</svg>
